<svg width="75" height="75" viewBox="0 0 75 75" fill="none" xmlns="http://www.w3.org/2000/svg">
<path d="M72.3285 33.9088C75.8781 37.4587 75.8781 43.2142 72.3285 46.7641L48.8547 70.2381C47.486 71.6067 45.7712 72.5772 43.8935 73.0471L36.6129 74.8669C33.4466 75.6587 30.5787 72.7903 31.3702 69.6244L33.1904 62.344C33.6598 60.4661 34.6307 58.7513 35.9994 57.3827L59.4731 33.9088C63.0233 30.3589 68.7783 30.3589 72.3285 33.9088ZM53.1095 0C61.7378 0 68.7326 6.99475 68.7326 15.6232V25.2593C66.6666 24.8731 64.5362 24.9135 62.4834 25.3806V15.6232C62.4834 10.4461 58.287 6.24927 53.1095 6.24927H15.6232C10.4461 6.24927 6.24927 10.4461 6.24927 15.6232V53.1095C6.24927 54.4649 6.53699 55.7535 7.05462 56.9165L27.3991 34.3127C31.1228 30.1754 37.6103 30.1754 41.3339 34.3126L45.5488 38.9956L41.1238 43.4206L36.689 38.4933C35.4478 37.1143 33.2853 37.1143 32.044 38.4933L11.3689 61.4647C12.6457 62.1165 14.0915 62.4834 15.6232 62.4834H26.7141L25.3079 68.109C25.2558 68.3171 25.2101 68.5252 25.1708 68.7326H15.6232C6.99475 68.7326 0 61.7385 0 53.1095V15.6232C0 6.99475 6.99475 0 15.6232 0H53.1095ZM64.3376 37.9637L63.8919 38.3277L40.4182 61.8016C39.9925 62.2271 39.6595 62.7339 39.4374 63.2892L39.2531 63.8595L38.2115 68.0258L42.3778 66.9841C42.962 66.8379 43.5082 66.5749 43.9843 66.2132L44.4358 65.8192L67.9096 42.3452C69.0189 41.2358 69.0189 39.4371 67.9096 38.3277C66.939 37.357 65.4402 37.2356 64.3376 37.9637ZM46.8587 12.5264C52.0352 12.5264 56.2316 16.7228 56.2316 21.8994C56.2316 27.076 52.0352 31.2724 46.8587 31.2724C41.6822 31.2724 37.4857 27.076 37.4857 21.8994C37.4857 16.7228 41.6822 12.5264 46.8587 12.5264ZM46.8587 18.7757C45.1336 18.7757 43.735 20.1742 43.735 21.8994C43.735 23.6246 45.1336 25.0231 46.8587 25.0231C48.5839 25.0231 49.9824 23.6246 49.9824 21.8994C49.9824 20.1742 48.5839 18.7757 46.8587 18.7757Z" fill="url(#paint0_linear_56_94)"/>
<defs>
<linearGradient id="paint0_linear_56_94" x1="37.4953" y1="0" x2="37.4953" y2="75" gradientUnits="userSpaceOnUse">
<stop stop-color="#8058D5"/>
<stop offset="1" stop-color="#6E2590" stop-opacity="0.75"/>
</linearGradient>
</defs>
</svg>
