<svg width="60" height="60" viewBox="0 0 60 60" fill="none" xmlns="http://www.w3.org/2000/svg">
<g clip-path="url(#clip0_56_35)">
<path d="M29.9978 59.9977C46.5664 59.9977 59.998 46.5661 59.998 29.9975C59.998 13.4288 46.5664 -0.00274658 29.9978 -0.00274658C13.4291 -0.00274658 -0.00244141 13.4288 -0.00244141 29.9975C-0.00244141 46.5661 13.4291 59.9977 29.9978 59.9977Z" fill="#AD59D4"/>
<path d="M38.7994 58.678C38.8219 58.6718 38.8444 58.6655 38.8669 58.6593C39.8216 58.3632 40.7609 58.0197 41.6813 57.6299C42.6024 57.2408 43.5035 56.8059 44.3813 56.3268C45.26 55.8473 46.1142 55.3241 46.9406 54.7593C47.7653 54.195 48.5613 53.5898 49.3256 52.9461C50.0919 52.3008 50.8253 51.6174 51.5231 50.8986C52.2189 50.182 52.8785 49.4311 53.4994 48.6486C54.1209 47.8651 54.7029 47.0509 55.2431 46.2093C55.7843 45.3678 56.2831 44.4999 56.7375 43.6086C57.1904 42.7165 57.5984 41.8022 57.96 40.8693C58.2174 40.1811 58.4494 39.4838 58.6556 38.7786L39.9394 20.0605C38.6359 18.7524 37.0868 17.7148 35.3811 17.0072C33.6754 16.2996 31.8467 15.9361 30 15.9374C22.245 15.9374 15.9375 22.2449 15.9375 29.9999C15.9375 33.8774 17.5144 37.393 20.0625 39.9374L38.7994 58.678Z" fill="#8526FE"/>
<path d="M30 15.9376C22.245 15.9376 15.9375 22.2451 15.9375 30.0001C15.9375 37.7551 22.245 44.0626 30 44.0626C37.755 44.0626 44.0625 37.7551 44.0625 30.0001C44.0625 22.2451 37.755 15.9376 30 15.9376ZM30 17.8126C36.7425 17.8126 42.1875 23.2576 42.1875 30.0001C42.1875 36.7426 36.7425 42.1876 30 42.1876C28.2933 42.1903 26.6051 41.834 25.045 41.1419C23.4849 40.4498 22.0878 39.4374 20.9444 38.1704C19.8009 36.9033 18.9367 35.41 18.4078 33.7873C17.8789 32.1646 17.6972 30.4489 17.8744 28.7514C18.1802 25.7494 19.5901 22.9681 21.8306 20.9469C24.0712 18.9257 26.9825 17.8087 30 17.8126ZM29.985 22.4889C29.737 22.4928 29.5007 22.5949 29.3278 22.7727C29.1549 22.9505 29.0595 23.1896 29.0625 23.4376V29.0626H23.4375C23.1889 29.0626 22.9504 29.1614 22.7746 29.3372C22.5988 29.513 22.5 29.7515 22.5 30.0001C22.5 30.2488 22.5988 30.4872 22.7746 30.663C22.9504 30.8389 23.1889 30.9376 23.4375 30.9376H29.0625V36.5626C29.0625 36.8113 29.1613 37.0497 29.3371 37.2255C29.5129 37.4014 29.7514 37.5001 30 37.5001C30.2486 37.5001 30.4871 37.4014 30.6629 37.2255C30.8387 37.0497 30.9375 36.8113 30.9375 36.5626V30.9376H36.5625C36.8111 30.9376 37.0496 30.8389 37.2254 30.663C37.4012 30.4872 37.5 30.2488 37.5 30.0001C37.5 29.7515 37.4012 29.513 37.2254 29.3372C37.0496 29.1614 36.8111 29.0626 36.5625 29.0626H30.9375V23.4376C30.939 23.3123 30.9154 23.1879 30.868 23.0719C30.8206 22.9558 30.7505 22.8505 30.6617 22.762C30.5729 22.6736 30.4672 22.6038 30.351 22.5569C30.2348 22.51 30.1103 22.4869 29.985 22.4889Z" fill="#5FE4D4"/>
</g>
<defs>
<clipPath id="clip0_56_35">
<rect width="60" height="60" fill="white"/>
</clipPath>
</defs>
</svg>
