<svg width="45" height="45" viewBox="0 0 45 45" fill="none" xmlns="http://www.w3.org/2000/svg">
<g clip-path="url(#clip0_4_49)">
<path d="M7.5 22.5C7.5 14.2313 14.2313 7.5 22.5 7.5C30.7687 7.5 37.5 14.2313 37.5 22.5C37.5 30.7687 30.7687 37.5 22.5 37.5C14.2313 37.5 7.5 30.7687 7.5 22.5ZM3.75 22.5C3.75 32.85 12.15 41.25 22.5 41.25C32.85 41.25 41.25 32.85 41.25 22.5C41.25 12.15 32.85 3.75 22.5 3.75C12.15 3.75 3.75 12.15 3.75 22.5ZM22.5 20.625H15V24.375H22.5V30L30 22.5L22.5 15V20.625Z" fill="#9B5377"/>
</g>
<defs>
<clipPath id="clip0_4_49">
<rect width="45" height="45" fill="white" transform="matrix(0 1 -1 0 45 0)"/>
</clipPath>
</defs>
</svg>
