<svg width="55" height="55" viewBox="0 0 55 55" fill="none" xmlns="http://www.w3.org/2000/svg">
<path d="M45.4089 27.1351C45.5613 37.0564 37.6088 45.257 27.6875 45.4094C17.7662 45.5618 9.56558 37.6093 9.41318 27.688C9.26079 17.7666 17.2133 9.56604 27.1346 9.41365C37.0559 9.26126 45.2565 17.2137 45.4089 27.1351ZM49.9084 27.066C49.7176 14.6474 39.484 4.72343 27.0655 4.91418C14.647 5.10493 4.72297 15.3386 4.91372 27.7571C5.10447 40.1756 15.3381 50.0996 27.7566 49.9089C40.1751 49.7181 50.0991 39.4845 49.9084 27.066ZM27.4456 29.6613L36.4445 29.523L36.3754 25.0236L27.3765 25.1618L27.2728 18.4126L18.4121 27.5497L27.5493 36.4105L27.4456 29.6613Z" fill="#FAFAFA"/>
</svg>
