<svg width="287" height="287" viewBox="0 0 287 287" fill="none" xmlns="http://www.w3.org/2000/svg">
<path d="M69.5975 202.335C70.1428 202.421 73.1276 202.564 73.1276 202.048C73.1276 201.746 72.5823 201.761 72.5823 201.761C72.6541 199.465 75.5671 198.891 77.6479 200.096C78.2214 200.426 78.7516 200.826 79.2264 201.287C76.2846 201.445 72.3814 203.454 72.6397 206.367C72.788 207.127 73.1065 207.843 73.5713 208.462C74.0361 209.08 74.635 209.586 75.3232 209.94C76.1833 210.584 77.1631 211.05 78.2052 211.311C79.2474 211.572 80.3311 211.623 81.3932 211.461C83.2848 210.979 84.9492 209.852 86.1 208.275C88.701 208.358 91.2458 207.508 93.275 205.879C93.3606 205.811 93.4315 205.726 93.4834 205.63C93.5352 205.534 93.5668 205.428 93.5764 205.319C93.5764 204.817 93.5763 204.846 90.7064 201.66C90.6251 201.569 90.5233 201.5 90.4094 201.457C90.2956 201.413 90.1731 201.398 90.0521 201.412C89.9312 201.426 89.8154 201.469 89.7145 201.537C89.6136 201.605 89.5305 201.697 89.4723 201.804C89.4227 201.866 89.3795 201.934 89.3431 202.005C89.1152 202.433 88.7467 202.769 88.2998 202.957C87.8528 203.145 87.3547 203.174 86.8893 203.038C85.4543 202.622 83.6031 198.819 80.2309 196.552C77.2891 194.571 73.3429 193.983 70.559 196.336C69.3608 197.365 68.5089 198.738 68.1195 200.268C67.9645 200.74 67.9953 201.253 68.2056 201.703C68.5825 202.068 69.0744 202.292 69.5975 202.335ZM74.9931 207.658C74.5997 207.377 74.3266 206.958 74.2282 206.485C74.1298 206.012 74.2133 205.519 74.4622 205.104C75.0985 204.225 75.9829 203.555 77.0021 203.181C76.1799 204.575 75.5065 206.052 74.9931 207.587V207.658ZM88.5108 205.391C88.8552 204.358 88.5108 204.717 89.0848 204.458C89.5197 204.242 89.9131 203.95 90.2472 203.597L91.553 205.147C90.4716 205.833 89.276 206.319 88.0229 206.582C88.1664 206.209 88.396 205.635 88.5108 205.319V205.391ZM83.3161 201.732C84.6794 203.44 85.813 204.961 87.8938 204.788C87.5969 205.406 87.3567 206.05 87.1763 206.711C86.1287 206.783 85.9852 206.539 85.5691 206.711C84.7511 207.027 83.4022 209.969 80.1304 209.954C80.3341 209.499 80.4648 209.015 80.5179 208.519C81.4436 208.332 82.3103 207.924 83.0435 207.328C83.3577 207.056 83.5618 206.679 83.6175 206.266C83.6175 205.764 83.4453 205.118 82.3834 204.272C82.779 203.434 83.0914 202.559 83.3161 201.66V201.732ZM78.4945 207.156C77.2317 206.482 79.3842 205.291 80.7762 205.334C81.096 205.336 81.4086 205.429 81.6778 205.602C81.947 205.774 82.1617 206.02 82.2973 206.31C82.1055 206.618 81.8528 206.884 81.5546 207.092C81.2564 207.3 80.9189 207.444 80.5629 207.517C80.2069 207.589 79.8398 207.588 79.4841 207.514C79.1285 207.44 78.7917 207.293 78.4945 207.084V207.156ZM80.1878 198.374C81.1623 199.202 82.0472 200.131 82.8282 201.144C82.3741 201.972 82.0269 202.854 81.795 203.77C81.192 203.597 80.5598 203.549 79.9377 203.631C79.3156 203.712 78.7169 203.921 78.1788 204.243C75.5528 205.678 76.1698 208.821 79.8147 208.462C79.6005 208.875 79.4413 209.314 79.3412 209.768C77.886 209.478 76.5252 208.832 75.3806 207.888C76.3978 206.307 77.1899 204.593 77.734 202.794C78.2918 202.538 78.8953 202.395 79.5089 202.376C80.1226 202.356 80.7339 202.459 81.3071 202.679L81.6085 201.545L81.2928 201.402C80.6183 200.943 80.317 200.584 79.5421 199.967C79.8297 199.443 80.0468 198.883 80.1878 198.302V198.374ZM74.62 196.078C76.4158 196.111 78.1546 196.714 79.5851 197.8C79.3282 198.385 79.1357 198.996 79.0111 199.622C78.3233 199.083 77.5118 198.723 76.65 198.575C75.7882 198.427 74.9031 198.496 74.0747 198.776C74.3775 197.905 74.5609 196.998 74.62 196.078ZM71.3339 197.197C72.1294 196.578 73.0854 196.2 74.0891 196.107C73.6438 197.071 73.3671 198.105 73.2711 199.163C72.8436 199.42 72.4936 199.787 72.2586 200.227C72.0236 200.667 71.9123 201.162 71.9366 201.66C70.9311 201.716 69.925 201.564 68.9805 201.215C69.1939 199.621 70.0297 198.177 71.3052 197.197H71.3339ZM49.895 194.801C47.312 193.682 41.572 196.996 40.5244 198.776C40.3729 199.168 40.3729 199.603 40.5244 199.996C41.4285 203.425 49.8663 215.537 51.4304 217.416C51.7031 217.761 52.0762 217.287 51.8322 216.885C51.086 215.651 51.1721 218.134 54.9892 205.779C55.3428 205.64 55.6722 205.446 55.965 205.205C56.0981 205.057 56.1718 204.865 56.1718 204.666C56.1718 204.468 56.0981 204.276 55.965 204.128C55.8347 203.967 55.6854 203.823 55.5202 203.698L56.4242 200.354L60.0117 202.335C59.2862 204.148 58.757 206.034 58.4332 207.96C56.9864 208.481 55.6305 209.227 54.4152 210.17C53.5686 211.102 54.9031 212.824 55.7354 213.858C56.5677 214.891 57.2709 215.594 57.4287 215.752C57.5866 215.91 58.0888 215.752 58.0458 215.494C57.9547 215.286 57.8338 215.092 57.687 214.92C56.9095 213.709 56.2419 212.432 55.6924 211.102C56.8077 210.435 57.9851 209.878 59.2081 209.438C59.653 209.28 61.0306 208.849 61.4037 209.079C63.2447 210.049 65.165 210.86 67.1437 211.504C67.2236 211.542 67.3154 211.547 67.3988 211.517C67.4822 211.488 67.5505 211.426 67.5885 211.346C67.6266 211.266 67.6313 211.175 67.6017 211.091C67.5721 211.008 67.5106 210.94 67.4307 210.902L64.9481 209.395C65.4766 208.196 65.8155 206.923 65.9526 205.621L72.0801 208.936C72.4532 209.151 72.7402 208.562 72.4675 208.405C72.1949 208.247 53.5973 196.422 49.895 194.801ZM47.7138 196.322C48.2146 196.172 48.7485 196.172 49.2492 196.322C49.5793 196.465 50.3829 196.896 51.4735 197.499C51.1056 198.514 50.8552 199.569 50.7273 200.641C49.7658 200.096 49.1918 199.68 48.4313 199.809C48.0167 199.902 47.629 200.088 47.2976 200.354C47.4411 199.235 47.5703 198.374 47.7138 196.322ZM41.9738 199.479C43.4621 198.06 45.2676 197.017 47.2402 196.437C46.4744 199.822 45.9374 203.254 45.633 206.711C44.186 204.42 42.9653 201.993 41.9881 199.465L41.9738 199.479ZM48.4887 211.547C47.6994 210.241 46.8384 208.792 46.0205 207.371C46.5084 205.319 46.6662 204.372 46.9676 202.435C47.7527 203.797 48.6605 205.084 49.6797 206.281C49.1012 207.989 48.7067 209.755 48.503 211.547H48.4887ZM50.9999 215.68C50.4833 214.862 49.8232 213.757 48.9622 212.337C49.507 210.536 49.8676 208.685 50.0385 206.812C50.3542 207.572 53.1668 206.482 53.9273 206.195C53.3677 207.96 51.4161 214.102 51.0143 215.68H50.9999ZM50.5694 206.367C49.6801 204.828 48.8939 203.232 48.216 201.588L48.6609 201.344C48.8618 201.459 53.7695 204.358 54.1282 204.588C53.0098 205.299 51.8223 205.895 50.5838 206.367H50.5694ZM54.8744 203.21C53.7982 202.492 52.3345 201.617 51.2152 200.971C51.5982 199.955 51.8489 198.894 51.9614 197.814L56.0368 200.11C55.965 200.656 55.4771 201.775 54.9605 203.21H54.8744ZM64.3741 208.95L62.1642 207.615C61.1823 207.228 60.0896 207.228 59.1077 207.615C59.6638 205.938 60.0673 204.214 60.3131 202.464L65.5078 205.334C64.9771 206.504 64.624 207.747 64.4602 209.022L64.3741 208.95Z" fill="#100259"/>
<path d="M278.892 214.059C276.568 192.42 256.535 159.142 244.567 140.96C251.25 141.495 257.956 141.663 264.657 141.463C266.566 141.463 271.56 141.118 272.521 140.932C273.081 140.817 273.167 140.286 272.32 140.257C271.474 140.228 265.447 139.941 264.629 139.927H250.035C247.796 140.013 244.295 140.214 244.094 140.214C239.789 133.656 236.79 129.552 236.761 129.538C236.728 129.504 236.688 129.478 236.644 129.461C236.6 129.445 236.553 129.437 236.507 129.44C236.46 129.443 236.414 129.456 236.372 129.477C236.331 129.499 236.294 129.53 236.265 129.567C236.237 129.604 236.216 129.647 236.205 129.692C236.194 129.738 236.193 129.786 236.202 129.832C236.211 129.878 236.229 129.922 236.256 129.96C236.284 129.998 236.319 130.031 236.359 130.054C237.019 130.585 266.021 172.961 274.889 202.149C278.405 213.729 280.485 228.266 269.149 232.284C242.228 241.898 31.3835 245.027 11.4513 233.719C8.68175 232.155 8.036 228.897 8.5813 224.506C9.42795 218.407 12.7141 210.156 16.6747 200.915C21.1376 205.22 58.1606 239.215 64.1589 237.938C70.1572 236.661 103.894 220.99 105.286 217.991C106.095 215.908 106.522 213.697 106.549 211.462C106.719 211.228 106.798 210.941 106.771 210.653C106.745 210.365 106.615 210.097 106.405 209.898C104.181 207.688 60.0548 172.703 57.2135 172.803C55.2332 172.889 51.6457 174.927 49.938 175.931C49.3844 175.025 48.5601 174.316 47.5816 173.904C46.6031 173.492 45.5199 173.398 44.485 173.635C43.5093 174.029 42.6356 174.64 41.9297 175.42C41.2238 176.201 40.7041 177.131 40.4096 178.141C40.4257 178.219 40.468 178.288 40.5295 178.338C40.5909 178.388 40.6677 178.416 40.7469 178.416C40.826 178.416 40.9028 178.388 40.9643 178.338C41.0257 178.288 41.068 178.219 41.0841 178.141C41.9472 176.682 43.3155 175.589 44.9299 175.07C45.6011 174.967 46.2879 175.057 46.9102 175.329C47.5326 175.6 48.065 176.043 48.4456 176.606L32.4884 183.422C31.6411 182.551 30.5834 181.913 29.4175 181.571C26.691 180.853 24.8542 182.647 23.7636 185.273C23.7396 185.349 23.7424 185.43 23.7715 185.504C23.8006 185.578 23.8542 185.639 23.9233 185.678C23.9925 185.717 24.0728 185.73 24.1509 185.717C24.229 185.703 24.3 185.663 24.352 185.603C26.1888 182.949 28.3126 182.044 30.8525 184.168C27.7816 185.532 23.491 187.469 20.4775 188.961C20.6927 188.617 51.66 132.537 51.66 132.393C53.0233 129.868 55.7641 125.347 58.5911 124.759C59.8688 124.481 61.1722 124.336 62.4799 124.329C60.4853 127.629 44.2985 154.464 44.2698 158.252C44.2698 162.557 45.016 161.883 47.312 162.557C49.608 163.232 178.084 162.442 178.313 162.442C180.537 162.442 189.234 162.155 190.037 161.567C192.534 159.73 191.974 156.989 190.884 154.105C190.626 153.416 189.32 150.56 187.569 146.743C195.103 144.476 200.771 147.36 201.288 159.658C201.804 170.292 197.614 173.535 189.592 173.076C183.149 172.703 178.701 170.808 177.294 173.32C175.716 176.118 180.078 182.403 181.973 185.015C181.7 185.015 169.689 184.771 166.661 184.642C162.394 184.477 158.122 184.529 153.861 184.8C150.926 184.864 148.009 185.264 145.165 185.991C144.088 186.522 142.697 189.291 142.108 190.454C140.946 192.735 135.651 207.057 134.187 211.189C133.326 213.571 130.413 221.464 132.365 222.856C132.293 224.391 132.537 226.443 133.886 227.161C135.234 227.878 153.775 228.395 155.195 228.424C157.707 228.496 183.092 228.826 199.293 228.108C215.494 227.391 222.569 225.841 222.153 225.884C222.564 225.763 222.934 225.529 223.22 225.21C223.506 224.891 223.698 224.498 223.774 224.076C223.995 223.015 223.926 221.914 223.573 220.89C225.381 217.374 211.706 188.186 207.917 186.134C207.694 186.008 207.442 185.939 207.185 185.933C206.425 185.933 189.406 185.216 182.79 185.001C181.355 182.977 176.692 175.357 178.485 173.736C181.212 171.354 203.985 183.293 202.766 159.529C202.134 148.781 197.184 142.481 187.139 146.126C186.263 144.232 178.916 128.533 176.95 124.357C184.566 124.813 192.207 124.645 199.795 123.855C199.904 125.194 200.289 126.497 200.927 127.68C201.564 128.863 202.439 129.901 203.498 130.729C209.238 135.034 232.083 134.388 236.23 129.122C237.392 127.532 238.195 125.71 238.584 123.78C238.973 121.85 238.939 119.858 238.483 117.943C238.865 117.7 239.161 117.344 239.329 116.924C239.559 116.479 239.329 115.919 238.339 115.719C237.062 115.527 235.77 115.45 234.479 115.489C234.479 114.312 234.551 112.117 234.479 109.62C234.608 109.534 235.541 108.414 235.642 108.285C236.785 106.949 237.688 105.424 238.311 103.779C238.784 102.445 238.971 100.909 237.722 100.163C235.799 99.1156 234.45 101.038 233.805 103.191C233.202 99.8761 231.81 95.0115 228.481 95.4994C222.827 96.3604 226.73 110.065 228.567 115.489C226.953 115.262 225.316 115.262 223.702 115.489C225.496 110.983 226.414 105.157 221.808 104.282C221.11 104.127 220.381 104.181 219.713 104.436C219.045 104.691 218.466 105.136 218.048 105.717C217.956 105.392 217.783 105.096 217.545 104.856C217.308 104.616 217.013 104.441 216.689 104.346C216.365 104.252 216.022 104.241 215.692 104.315C215.363 104.389 215.058 104.545 214.805 104.77C212.696 106.291 213.901 109.778 216.355 110.926C216.226 112.401 216.226 113.885 216.355 115.36C214.827 115.175 213.281 115.209 211.763 115.46C211.678 111.956 211.294 108.466 210.615 105.028C211.487 104.407 212.221 103.612 212.769 102.694C213.317 101.775 213.669 100.752 213.801 99.6896C214.002 97.781 213.327 96.1882 211.734 95.772C209.74 95.2554 208.563 96.6474 208.219 98.642C206.454 96.2025 202.995 95.3272 201.316 98.1254C195.935 92.5289 193.338 95.6572 194.701 98.1254C195.72 100.02 198.375 101.082 200.441 101.67C200.441 104.884 201.876 107.596 203.655 110.366C204.846 112.232 206.181 114.025 207.214 115.345C204.981 115.274 202.747 115.418 200.541 115.776C199.193 116.135 198.977 117.111 200.226 117.814C199.831 119.496 199.686 121.227 199.795 122.951C192.087 122.541 184.358 122.723 176.677 123.496C176.189 122.449 174.74 119.392 174.568 119.033C174.396 118.675 175.773 114.513 177.711 75.8255C186.608 75.0793 226.615 75.969 230.289 74.5483C230.5 74.4727 230.686 74.3425 230.83 74.1711C230.974 73.9996 231.069 73.793 231.107 73.5725C232.327 69.5689 233.159 35.1575 231.107 31.9574C230.605 31.1682 228.811 30.9242 227.821 30.7807C215.035 28.9152 161.682 29.7188 158.941 31.1682C156.2 32.6175 157.362 46.7666 157.879 49.5793C130.169 48.6896 66.1822 50.4259 60.1552 52.6789C58.7202 53.1955 58.1893 55.1614 57.9023 56.6395C55.5202 68.9375 62.2073 108.515 64.4459 120.741C64.3024 120.741 64.4459 120.741 62.6952 123.468C61.2134 123.358 59.7236 123.435 58.261 123.697C54.9892 124.199 51.9757 128.72 50.3111 131.532C50.2394 131.676 46.0061 138.707 45.3747 139.855C41.7729 139.296 25.0264 139.511 22.9026 139.626C20.7788 139.741 18.5976 139.898 16.6747 140.042C16.3303 140.042 16.3016 140.702 16.6747 140.716C20.6927 140.96 22.1708 141.046 25.2847 141.089C32.9046 141.204 44.1406 141.52 44.4994 141.477C43.7532 142.783 32.7037 162.442 31.2256 165.226C24.7968 177.28 19.7456 188.315 19.4443 189.248C17.7761 190.007 16.2094 190.971 14.7805 192.118C14.3196 193.382 14.0441 194.707 13.9626 196.05C13.8908 198.36 14.7231 198.92 16.0003 200.212C12.5733 207.554 9.75602 215.166 7.5768 222.971C6.86536 226.128 6.83601 229.401 7.4907 232.571C8.07662 235.74 9.17183 238.793 10.7338 241.611C11.4354 242.324 12.3447 242.796 13.3312 242.96C17.1052 244.022 28.8005 245.385 32.718 245.83C32.4227 247.584 32.3408 249.367 32.4741 251.14C32.4779 252.967 32.7437 254.784 33.2633 256.535C33.2756 256.621 33.3206 256.698 33.3886 256.75C33.4566 256.803 33.5424 256.827 33.628 256.818C33.7136 256.809 33.7922 256.767 33.8473 256.701C33.9024 256.634 33.9297 256.55 33.9234 256.464C34.153 254.675 34.2154 252.869 34.11 251.068C34.1005 249.335 33.9033 247.607 33.5216 245.916C35.5019 246.089 37.4105 246.232 39.0751 246.29C38.8104 247.964 38.7381 249.664 38.8598 251.355C38.8647 253.182 39.1304 254.999 39.6491 256.751C39.6491 256.838 39.6838 256.922 39.7457 256.984C39.8076 257.046 39.8916 257.081 39.9791 257.081C40.0667 257.081 40.1506 257.046 40.2125 256.984C40.2744 256.922 40.3092 256.838 40.3092 256.751C40.5465 254.963 40.6138 253.156 40.5101 251.355C40.5002 249.679 40.3078 248.01 39.9361 246.376C43.1361 246.447 90.2329 250.681 171.569 249.073C193.366 248.643 219.57 247.638 241.152 245.271C240.867 247.001 240.785 248.759 240.908 250.508C240.915 252.332 241.186 254.144 241.712 255.89C241.701 255.938 241.702 255.988 241.714 256.035C241.725 256.083 241.747 256.128 241.778 256.166C241.809 256.204 241.848 256.235 241.892 256.256C241.937 256.277 241.985 256.288 242.034 256.288C242.084 256.288 242.132 256.277 242.177 256.256C242.221 256.235 242.26 256.204 242.291 256.166C242.322 256.128 242.344 256.083 242.355 256.035C242.367 255.988 242.368 255.938 242.357 255.89C242.608 254.103 242.675 252.295 242.558 250.494C242.543 248.722 242.336 246.956 241.941 245.228C243.534 245.055 247.222 244.596 247.538 244.553C247.255 246.274 247.178 248.023 247.308 249.762C247.309 251.589 247.575 253.407 248.097 255.158C248.11 255.243 248.155 255.32 248.223 255.373C248.291 255.426 248.376 255.45 248.462 255.441C248.548 255.431 248.626 255.389 248.681 255.323C248.736 255.257 248.764 255.172 248.757 255.086C248.994 253.303 249.056 251.5 248.944 249.705C248.935 247.937 248.728 246.175 248.327 244.453C254.799 243.577 274.587 240.908 277.285 235.384C280.471 229.084 280.213 220.89 278.892 214.059ZM148.307 190.956C148.465 190.568 153.272 189.521 158.525 190.956C158.573 190.946 158.622 190.946 158.67 190.958C158.718 190.969 158.763 190.991 158.801 191.022C158.839 191.053 158.87 191.092 158.891 191.137C158.912 191.181 158.923 191.23 158.923 191.279C158.923 191.328 158.912 191.376 158.891 191.421C158.87 191.465 158.839 191.504 158.801 191.535C158.763 191.566 158.718 191.588 158.67 191.6C158.622 191.611 158.573 191.612 158.525 191.602C155.909 192.066 153.239 192.134 150.603 191.802C149.369 191.602 147.805 191.587 148.264 190.956H148.307ZM222.081 225.08C208.807 227.606 135.478 227.032 134.374 226.515C133.269 225.999 133.168 224.334 133.139 223.243C141.089 225.826 218.766 223.832 223.085 221.55C223.315 222.813 223.372 224.836 222.038 225.08H222.081ZM194.227 191.114C194.227 190.626 197.384 190.353 197.528 190.339C199.405 190.194 201.29 190.194 203.167 190.339C204.215 190.454 205.664 190.597 205.55 191.042C205.435 191.487 203.268 191.673 202.895 191.731C201.492 191.86 200.084 191.917 198.676 191.903C197.729 191.874 194.127 191.702 194.184 191.114H194.227ZM212.667 195.892C216.257 202.733 219.272 209.861 221.679 217.202C221.985 218.129 222.154 219.096 222.181 220.072C215.709 222.081 141.118 224.147 133.57 221.981C133.211 221.88 133.111 221.981 133.025 221.378C132.479 217.475 138.865 201.962 140.343 198.346C167.493 197.442 212.38 196.05 212.624 195.892H212.667ZM200.584 101.024C199.015 100.162 197.591 99.0579 196.366 97.7523C195.806 96.9057 195.935 96.3173 197.585 97.1209C198.619 97.5945 200.068 98.4411 201.044 99.0295C200.793 99.668 200.638 100.34 200.584 101.024ZM235.024 103.593C236.173 101.526 237.306 100.938 237.191 102.158C236.575 104.34 235.698 106.441 234.58 108.414C234.494 106.979 234.393 106.018 234.278 105.071C234.336 104.87 234.623 104.267 234.981 103.593H235.024ZM228.926 116.077C229.213 116.895 229.399 117.383 229.414 117.412C229.429 117.453 229.453 117.49 229.483 117.521C229.514 117.553 229.55 117.578 229.59 117.595C229.63 117.612 229.673 117.622 229.717 117.622C229.76 117.623 229.804 117.615 229.844 117.598C230.476 117.354 229.543 116.766 228.05 108.113C227.606 105.53 226.285 97.5658 228.897 97.1927C231.021 96.877 232.169 102.143 232.571 104.224C233.315 108.235 233.795 112.29 234.006 116.364C234.005 116.444 234.032 116.521 234.084 116.582C234.135 116.642 234.206 116.683 234.285 116.695C234.363 116.707 234.444 116.69 234.511 116.648C234.578 116.606 234.628 116.541 234.651 116.465C234.656 116.384 234.656 116.302 234.651 116.221C235.949 116.259 237.238 116.437 238.497 116.752C238.337 116.939 238.136 117.086 237.909 117.182C234.895 118.732 225.783 118.431 222.64 118.373C223.071 117.512 223.372 116.852 223.702 116.063C225.417 116.345 227.166 116.35 228.883 116.077H228.926ZM217.733 112.935C218.063 110.065 218.795 105.487 221.693 106.032C224.592 106.578 223.86 110.782 223.229 113.595C222.839 115.208 222.36 116.799 221.794 118.359H217.489C217.454 116.549 217.521 114.738 217.69 112.935H217.733ZM215.91 106.19C215.977 106.127 216.056 106.078 216.143 106.047C216.23 106.015 216.322 106.003 216.414 106.01C216.506 106.016 216.596 106.042 216.677 106.086C216.758 106.129 216.829 106.189 216.886 106.262C217.115 106.491 217.321 106.741 217.503 107.008C217.095 107.923 216.811 108.888 216.656 109.878C215.91 108.845 214.949 106.965 215.91 106.19ZM211.39 97.4653C213.256 98.0537 211.792 102.961 210.543 104.454C210.198 102.909 209.683 101.408 209.008 99.9766C209.424 98.7138 210.127 97.0635 211.39 97.451V97.4653ZM207.86 116.235C208.563 117.125 209.022 117.67 209.022 117.67C209.079 117.726 209.155 117.76 209.235 117.765C209.315 117.769 209.394 117.745 209.457 117.696C209.52 117.647 209.563 117.576 209.578 117.498C209.593 117.419 209.579 117.337 209.539 117.268C209.539 117.268 206.999 113.652 204.904 109.907C203.325 107.037 201.819 104.167 202.235 100.995C202.565 98.4985 203.885 97.4366 206.109 98.886C209.324 100.952 210.787 113.695 211.247 117.541C211.251 117.642 211.286 117.738 211.348 117.818C211.41 117.898 211.495 117.956 211.591 117.986C211.978 117.986 211.921 117.57 211.907 117.369C211.892 117.168 211.907 116.163 211.907 116.063C213.431 116.256 214.974 116.256 216.499 116.063C216.585 117.111 216.685 117.928 216.757 118.359C211.663 118.359 205.507 118.703 201.288 117.053C203.456 116.624 205.652 116.351 207.86 116.235ZM200.986 118.345C203.085 119.158 205.297 119.642 207.544 119.78C210.084 120.009 227.376 120.038 229.342 119.937C232.306 119.889 235.241 119.341 238.024 118.316C238.291 120.078 238.19 121.876 237.728 123.598C237.266 125.319 236.453 126.926 235.34 128.318C231.853 132.408 209.797 133.34 204.502 129.609C201.015 127.213 200.384 122.42 200.986 118.33V118.345ZM189.42 160.476C189.721 161.438 52.8941 161.481 52.7506 161.467C47.0106 161.467 48.4456 161.466 46.5227 160.993C46.0061 160.878 45.9057 160.878 45.8052 160.376C45.6835 159.588 45.6498 158.789 45.7048 157.994C45.7349 158.053 45.7835 158.1 45.8431 158.129C45.9028 158.157 45.9701 158.165 46.0348 158.152C46.0348 158.152 189.377 156.2 190.31 156.171C190.697 157.85 190.755 159.414 189.42 160.476ZM229.787 73.386C229.787 73.386 229.873 73.2425 229.902 73.2855C229.93 73.3286 229.787 73.3716 229.715 73.386H229.787ZM158.424 37.1952C158.424 36.2624 158.797 32.7323 159.63 32.3018C161.524 31.3547 221.722 30.5511 229.945 33.1198C231.38 36.1333 230.92 69.985 229.715 73.386C222.655 74.4909 187.124 74.4048 177.883 75.3519C178.442 64.0584 178.686 54.5444 178.227 52.6932C178.139 52.4518 177.995 52.2342 177.809 52.0574C177.622 51.8806 177.397 51.7495 177.151 51.6744C174.008 50.3111 162.184 49.9237 158.74 49.8089C158.293 45.6198 158.187 41.4013 158.424 37.1952ZM59.1938 73.3286C58.9785 70.3151 57.9166 55.104 60.7866 54.0421C62.2216 53.5399 67.2729 53.0376 74.6057 52.6071C88.6544 51.7318 110.796 51.0286 130.944 50.8851C135.421 50.8851 173.248 50.5551 176.95 53.095C178.041 58.0601 174.554 113.222 173.779 118.546C139.87 119.65 99.6895 121.315 65.4935 120.483C64.9194 117.197 60.5283 91.8401 59.1938 73.3286ZM65.0486 121.444C65.0513 121.411 65.0513 121.377 65.0486 121.344C89.2284 122.09 164.896 119.607 174.109 119.55C175.128 121.918 189.434 153.66 190.037 155.425C189.879 155.425 45.92 157.377 45.7335 157.52C47.5416 151.465 62.4943 125.864 65.0486 121.444ZM104.497 217.589C103.435 219.656 71.2622 234.035 64.6468 236.029C64.7751 235.368 64.8233 234.693 64.7903 234.02C74.5627 230.634 95.772 221.694 105.286 215.365C105.105 216.138 104.84 216.888 104.497 217.604V217.589ZM105.487 214.418C102.617 216.111 99.8761 217.288 64.7759 233.245C64.7773 232.596 64.6904 231.949 64.5176 231.322C69.1096 229.17 100.249 217.102 105.803 212.294C105.731 212.911 105.63 213.658 105.487 214.432V214.418ZM31.57 184.972C32.2601 185.785 32.6871 186.788 32.7948 187.849C32.9024 188.909 32.6855 189.978 32.1727 190.913C31.9431 191.272 32.4884 191.645 32.718 191.272C33.5844 190.327 34.0965 189.112 34.1671 187.832C34.2378 186.553 33.8626 185.288 33.1055 184.254C40.0796 181.054 46.9389 178.041 48.8187 177.223C49.289 178.178 49.5408 179.226 49.5556 180.291C49.5705 181.356 49.3482 182.411 48.9048 183.379C48.7326 183.838 49.2492 184.01 49.4932 183.709C50.2824 182.706 50.7736 181.502 50.9106 180.233C51.0477 178.964 50.825 177.682 50.2681 176.534C51.8179 175.659 55.4341 173.664 57.1991 173.664C59.409 173.664 104.253 210.142 105.085 210.974C101.34 214.834 66.5697 228.596 63.6423 230.002C57.4718 228.567 19.8174 196.179 16.2873 192.85C18.4828 191.028 29.1018 186.12 31.57 184.972ZM15.1967 193.51C19.6739 197.887 57.0269 230.49 63.2835 231.523C63.158 232.064 63.1002 232.619 63.1113 233.174C53.0663 228.266 24.3663 203.412 14.8666 195.419C14.9097 195.419 15.1249 194.012 15.2397 193.51H15.1967ZM15.4119 198.432C15.0071 197.816 14.8063 197.088 14.8379 196.351C24.2228 205.822 50.7129 229.113 63.097 233.963C63.0715 234.73 63.1487 235.498 63.3266 236.245C55.965 234.594 16.3877 199.609 15.455 198.432H15.4119ZM276.582 234.91C267.312 253.307 15.7563 248.499 11.6809 241.324C9.95343 238.322 8.78644 235.03 8.2369 231.609C8.79048 232.822 9.71513 233.827 10.8773 234.479C32.0005 246.777 242.156 243.563 269.594 233.705C275.405 231.609 278.333 227.089 278.993 220.79C279.382 225.627 278.543 230.484 276.553 234.91H276.582Z" fill="#100259"/>
<path d="M61.7049 137.316C163.174 138.751 172.86 137.875 175.702 137.43C176.376 137.33 176.807 137.1 176.778 136.311C176.778 134.23 171.899 124.688 170.607 124.027C170.033 123.726 67.287 125.175 66.9283 125.29C66.8614 125.306 66.7988 125.336 66.7443 125.378C66.6899 125.421 66.645 125.474 66.6126 125.534C65.6368 127.127 60.8726 134.991 61.0878 136.77C61.1111 136.919 61.1855 137.055 61.2981 137.154C61.4108 137.254 61.5546 137.311 61.7049 137.316ZM67.3444 126.28C68.3776 126.151 169.459 125.147 170.076 125.204C171.148 126.745 172.107 128.361 172.946 130.04C170.593 130.04 65.4072 130.6 64.8619 130.614C65.4933 129.351 66.3256 127.916 67.3444 126.28ZM64.4744 131.303C65.0341 131.303 171.468 130.758 173.291 130.715C174.235 132.473 174.981 134.331 175.515 136.254C170.406 137.072 123.855 136.67 62.2215 136.254C62.7973 134.516 63.5423 132.838 64.4457 131.246L64.4744 131.303ZM140.903 142.195C140.616 141.561 140.149 141.026 139.559 140.659C138.969 140.291 138.283 140.106 137.588 140.128C133.943 140.128 103.334 139.282 100.579 140.401C98.8202 142.532 97.4592 144.963 96.5611 147.576C96.475 148.207 96.7907 148.494 97.1782 148.537C105.788 149.47 134.33 150.36 141.735 148.997C142.653 148.824 142.768 147.848 142.582 146.916C142.137 145.303 141.576 143.725 140.903 142.195ZM97.58 147.576C98.4042 145.247 99.5231 143.034 100.909 140.989C103.09 140.272 131.46 141.764 137.631 141.75C137.998 141.737 138.362 141.83 138.677 142.018C138.993 142.207 139.248 142.482 139.41 142.812C140.108 144.302 140.651 145.86 141.032 147.461C133.756 148.595 102.861 147.949 97.58 147.576ZM240.564 144.031C238.54 141.247 228.395 141.377 224.994 141.477C222.124 141.477 211.692 141.951 211.692 144.763C211.703 144.991 211.77 145.213 211.884 145.41C211.999 145.607 212.159 145.774 212.352 145.897C212.624 146.112 210.744 165.025 213.327 175.171C214.174 178.529 215.265 180.193 218.465 181.585C224.607 184.255 234.795 183.666 238.885 177.969C239.703 176.305 239.531 171.454 239.602 169.976C245.959 171.239 251.168 168.656 252.517 161.811C253.364 157.406 252.273 154.521 250.394 152.771C249.138 151.748 247.653 151.044 246.066 150.72C244.48 150.395 242.838 150.458 241.281 150.905C241.227 150.923 241.169 150.928 241.112 150.92C241.056 150.911 241.002 150.889 240.955 150.855C240.909 150.822 240.871 150.777 240.846 150.726C240.82 150.675 240.807 150.618 240.808 150.561C240.808 149.8 241.08 144.648 240.564 144.031ZM213.299 144.333C217.173 142.065 232.958 141.893 238.053 144.204C238.225 144.29 238.87 144.62 238.87 144.763C238.87 144.907 238.21 145.251 238.053 145.323C234.207 147.059 220.474 147.849 213.256 145.208C212.753 144.935 213.256 144.39 213.256 144.333H213.299ZM241.683 152.369C242.987 151.993 244.363 151.939 245.693 152.211C247.022 152.484 248.266 153.074 249.317 153.933C250.867 155.368 251.642 157.836 250.925 161.495C250.782 162.767 250.341 163.988 249.638 165.058C248.935 166.127 247.989 167.016 246.878 167.652C244.524 168.711 241.875 168.914 239.387 168.226C239.265 168.181 239.135 168.162 239.005 168.171C238.875 168.179 238.748 168.213 238.633 168.273C238.517 168.332 238.415 168.414 238.332 168.515C238.249 168.615 238.189 168.732 238.153 168.857C237.766 169.948 238.311 174.353 237.522 177.137C233.891 182.059 224.607 182.504 219.11 180.193C216.327 179.002 215.552 177.768 214.805 174.798C212.883 167.752 212.768 153.402 213.198 146.342C217.719 148.48 233.374 149.097 239.531 145.94C239.531 150.388 238.985 151.135 240.105 152.039C240.321 152.202 240.571 152.316 240.836 152.373C241.101 152.43 241.376 152.429 241.64 152.369H241.683ZM102.287 182.776C98.5181 179.58 94.4639 176.736 90.1753 174.281C88.5232 173.307 86.7661 172.522 84.9376 171.942C83.4021 171.54 82.7564 172.33 83.0721 173.377C83.719 174.881 84.574 176.287 85.612 177.553C88.9139 181.733 92.7109 185.496 96.9199 188.76C103.32 194.113 111.614 200.599 117.67 205.206C117.979 205.431 118.329 205.593 118.701 205.681C119.073 205.769 119.458 205.782 119.835 205.719C120.212 205.656 120.573 205.519 120.896 205.315C121.219 205.111 121.498 204.844 121.717 204.531C122.779 203.369 123.439 201.331 122.248 200.226C120.87 198.992 112.447 191.056 102.287 182.776ZM88.5394 179.591L86.5735 176.419C87.2734 176.129 87.8653 175.627 88.2668 174.984L91.3807 176.247C90.5994 176.402 89.8934 176.817 89.3775 177.424C88.8617 178.031 88.5663 178.795 88.5394 179.591ZM92.9449 183.25C91.9078 182.377 90.9477 181.417 90.0749 180.38C90.1753 178.644 90.7206 177.869 92.457 177.811C93.6139 178.364 94.7063 179.043 95.7145 179.835C94.9428 180.023 94.2541 180.459 93.7538 181.075C93.2536 181.692 92.9694 182.456 92.9449 183.25ZM117.483 204.129C115.891 202.795 94.71 184.829 93.4041 183.681C93.5136 182.877 93.8645 182.126 94.4103 181.526C94.9561 180.927 95.6711 180.507 96.4607 180.323C101.411 183.996 108.529 190.081 120.942 200.413C120.459 200.388 119.976 200.47 119.528 200.651C119.079 200.833 118.676 201.111 118.347 201.465C118.017 201.819 117.769 202.241 117.62 202.702C117.471 203.162 117.424 203.649 117.483 204.129ZM231.193 220.029C232.987 221.249 234.235 220.689 235.398 218.996C238.268 214.921 248.313 196.883 248.313 196.739C248.313 196.596 248.428 196.868 247.954 191.071C247.934 190.853 247.855 190.644 247.726 190.467C247.597 190.29 247.423 190.151 247.222 190.065C247.021 189.978 246.8 189.947 246.583 189.975C246.366 190.003 246.161 190.089 245.988 190.224L241.08 193.797C241.08 193.797 230.189 216.312 230.074 216.513C229.877 217.143 229.879 217.819 230.079 218.448C230.279 219.077 230.668 219.629 231.193 220.029ZM246.39 191.975C246.476 193.022 246.591 194.414 246.677 195.376C245.611 194.866 244.495 194.466 243.348 194.185L246.39 191.975ZM242.286 195.161C243.53 196.042 244.966 196.613 246.476 196.825C246.261 197.198 235.297 217.202 235.183 217.403C234.849 216.725 234.301 216.176 233.624 215.841C232.947 215.507 232.178 215.405 231.437 215.552C232.556 213.471 241.884 195.878 242.286 195.161Z" fill="#100259"/>
<path d="M235.685 166.704C235.53 166.487 235.334 166.303 235.107 166.162C234.881 166.022 234.628 165.928 234.365 165.886C233.516 165.659 232.653 165.487 231.782 165.37C232.27 168.785 232.557 172.545 232.542 172.875C232.521 173.093 232.413 173.294 232.244 173.434C232.075 173.574 231.857 173.641 231.638 173.621C231.419 173.596 231.218 173.485 231.078 173.314C230.939 173.142 230.872 172.923 230.892 172.702C230.892 172.459 230.806 171.468 230.734 165.226C227.864 164.867 214.045 163.791 214.591 166.546C214.591 166.69 213.457 173.721 217.848 177.094C222.239 180.466 231.021 179.806 234.092 176.376C234.964 175.332 235.538 174.073 235.757 172.731C236.096 170.734 236.071 168.693 235.685 166.704ZM239.129 153.717C239.129 154.363 238.268 159.3 237.694 165.929L238.383 166.073C240.908 166.609 243.538 166.322 245.888 165.255C246.708 164.8 247.386 164.128 247.849 163.313C248.312 162.498 248.542 161.571 248.514 160.634C248.611 159.469 248.409 158.299 247.926 157.235C247.442 156.17 246.695 155.247 245.754 154.554C244.813 153.86 243.71 153.42 242.55 153.273C241.391 153.127 240.213 153.28 239.129 153.717ZM239.775 154.205C240.691 154.06 241.627 154.113 242.521 154.361C243.414 154.608 244.245 155.045 244.955 155.64C245.638 156.266 246.166 157.041 246.5 157.905C246.833 158.769 246.963 159.698 246.878 160.62C246.749 164.308 242.961 165.011 239.33 164.638C239.502 162.026 239.646 159.027 239.775 154.205ZM224.406 69.9707C224.402 70.2263 224.449 70.4801 224.544 70.7175C224.639 70.9549 224.779 71.1713 224.958 71.354C225.137 71.5368 225.35 71.6823 225.585 71.7823C225.821 71.8823 226.073 71.9347 226.329 71.9366C226.719 71.9452 227.104 71.8372 227.433 71.6264C227.762 71.4157 228.02 71.1117 228.176 70.7533C228.331 70.3949 228.376 69.9983 228.305 69.6142C228.234 69.23 228.051 68.8757 227.777 68.5965C227.504 68.3172 227.154 68.1256 226.772 68.0462C226.389 67.9668 225.992 68.0032 225.63 68.1506C225.268 68.298 224.959 68.5499 224.741 68.8741C224.523 69.1983 224.406 69.58 224.406 69.9707ZM67.3447 117.311C67.6748 117.957 68.1053 118.029 68.3779 117.828C68.6506 117.627 159.529 116.838 166.288 116.479C167.742 116.501 169.191 116.318 170.593 115.934C173.822 113.064 175.085 59.409 173.822 56.9265C170.593 50.4833 69.5403 54.6305 63.3267 56.5103C58.3759 58.0027 65.0631 112.734 67.3447 117.311ZM63.0541 58.835C63.0541 58.5767 63.3698 57.5722 63.6137 57.5005C70.4874 55.4341 170.292 52.0331 173.004 57.4287C173.235 58.5083 173.341 59.611 173.32 60.7149C173.564 66.9715 173.32 80.3744 172.674 92.3854C172.545 94.6814 171.526 113.494 170.034 115.202C164.078 116.465 72.3098 116.752 68.2344 116.91C65.9097 111.514 60.8872 68.3061 63.0541 58.835ZM226.515 38.3289C226.905 38.3374 227.289 38.2297 227.618 38.0196C227.946 37.8095 228.205 37.5063 228.361 37.1488C228.517 36.7912 228.562 36.3954 228.493 36.0117C228.423 35.628 228.241 35.2736 227.969 34.9938C227.697 34.714 227.348 34.5213 226.967 34.4403C226.585 34.3593 226.188 34.3936 225.826 34.5388C225.464 34.6841 225.154 34.9337 224.934 35.2559C224.714 35.5782 224.595 35.9585 224.593 36.3485C224.587 36.6053 224.632 36.8607 224.726 37.0998C224.82 37.3389 224.961 37.5569 225.139 37.7412C225.318 37.9255 225.532 38.0723 225.768 38.1732C226.005 38.2741 226.259 38.327 226.515 38.3289Z" fill="#100259"/>
<path d="M91.1369 94.9972H108.185C110.157 94.9896 112.047 94.1996 113.438 92.8006C114.828 91.4016 115.608 89.5079 115.604 87.5352V73.7017C115.604 71.7247 114.825 69.8272 113.437 68.4199C112.048 67.0126 110.162 66.2087 108.185 66.1823H91.1369C90.1484 66.1785 89.1689 66.3704 88.2549 66.747C87.3409 67.1235 86.5105 67.6772 85.8115 68.3762C85.1125 69.0752 84.5587 69.9057 84.1822 70.8197C83.8057 71.7337 83.6138 72.7132 83.6175 73.7017V87.5352C83.6213 88.5189 83.8188 89.4922 84.1987 90.3996C84.5786 91.3069 85.1336 92.1306 85.8318 92.8235C86.53 93.5164 87.3579 94.065 88.2682 94.438C89.1784 94.8109 90.1533 95.001 91.1369 94.9972ZM84.8373 73.7017C84.8634 72.0431 85.5369 70.4604 86.7139 69.2914C87.8909 68.1225 89.4782 67.4599 91.1369 67.4451H108.185C109.022 67.4356 109.854 67.5922 110.631 67.9058C111.408 68.2194 112.115 68.6838 112.711 69.2722C113.307 69.8606 113.781 70.5614 114.105 71.334C114.43 72.1065 114.597 72.9357 114.599 73.7735V87.5352C114.595 88.3738 114.427 89.2034 114.102 89.9767C113.778 90.75 113.304 91.4519 112.709 92.0422C112.113 92.6325 111.407 93.0997 110.631 93.4171C109.854 93.7346 109.023 93.896 108.185 93.8922H91.1369C90.3059 93.8885 89.4837 93.7211 88.7174 93.3996C87.951 93.078 87.2555 92.6087 86.6705 92.0184C86.0855 91.4281 85.6226 90.7284 85.308 89.9591C84.9935 89.1899 84.8335 88.3662 84.8373 87.5352V73.7017ZM137.229 105.243C137.516 106.09 138.234 105.903 138.435 105.372C138.707 104.612 140.3 99.1444 140.501 98.1973C141.606 97.8528 138.492 98.9291 148.121 95.4277C148.221 95.389 148.306 95.321 148.367 95.2326C148.427 95.1443 148.46 95.0397 148.46 94.9326C148.46 94.8255 148.427 94.7209 148.367 94.6326C148.306 94.5442 148.221 94.4762 148.121 94.4375L133.369 88.5397C133.278 88.4968 133.178 88.4784 133.078 88.4864C132.978 88.4943 132.882 88.5282 132.799 88.5848C132.717 88.6414 132.65 88.7187 132.607 88.809C132.563 88.8992 132.544 88.9993 132.551 89.0993C132.551 89.0993 136.44 102.961 137.229 105.243ZM134.029 90.0751L146.456 94.9685C144.792 95.5855 141.979 96.6474 140.63 97.1927C140.027 97.4223 139.783 97.5228 139.64 97.7093C139.496 97.8959 139.999 96.7766 137.889 103.277L134.029 90.0751ZM167.895 48.0008C167.912 48.0869 167.959 48.1643 168.027 48.2194C168.095 48.2745 168.181 48.3038 168.268 48.3022C168.57 48.3022 177.854 49.1919 179.748 48.6896C180.968 48.3596 181.183 46.2071 181.298 44.9443C181.441 43.0357 181.298 38.3576 180.494 36.7647C179.404 34.6122 171.353 35.3297 169.014 35.7459C168.394 35.8332 167.8 36.0588 167.278 36.406C166.974 36.7588 166.797 37.2035 166.776 37.6688C166.762 41.1438 167.137 44.6095 167.895 48.0008ZM168.311 37.5109C170.579 36.8078 177.036 36.5351 179.088 37.5109C179.791 39.3764 180.164 45.7909 179.318 47.2833C177.983 47.6277 169.832 47.6277 168.469 47.6421C168.426 46.5228 167.766 40.4814 168.311 37.5109ZM187.153 47.9434C187.172 48.0282 187.219 48.1041 187.287 48.1588C187.355 48.2134 187.439 48.2437 187.526 48.2448C187.827 48.2448 197.112 49.1345 199.006 48.6322C200.226 48.3022 200.441 46.1497 200.57 44.8869C200.699 42.9783 200.57 38.3002 199.752 36.7073C198.661 34.5405 190.611 35.2723 188.272 35.6885C187.653 35.7817 187.061 36.0068 186.536 36.3486C186.238 36.7053 186.062 37.1477 186.033 37.6114C186.02 41.0864 186.396 44.5519 187.153 47.9434ZM187.569 37.4535C189.836 36.736 196.294 36.4777 198.346 37.4535C199.049 39.319 199.422 45.7335 198.575 47.2116C197.241 47.5703 189.09 47.5703 187.727 47.5847C187.684 46.4654 187.024 40.424 187.569 37.4535ZM207.3 48.5748C207.317 48.6609 207.364 48.7383 207.432 48.7934C207.5 48.8485 207.586 48.8778 207.673 48.8762C207.975 48.8762 217.259 49.7659 219.153 49.2636C220.373 48.9336 220.588 46.7811 220.703 45.5183C220.847 43.6097 220.703 38.9316 219.899 37.3387C218.809 35.1862 210.759 35.9037 208.42 36.3199C207.8 36.4109 207.207 36.6362 206.683 36.98C206.379 37.3328 206.202 37.7775 206.181 38.2428C206.167 41.7178 206.542 45.1835 207.3 48.5748ZM207.716 38.0849C209.984 37.3818 216.441 37.1091 218.493 38.0849C219.196 39.9504 219.569 46.3649 218.723 47.8573C217.388 48.2017 209.237 48.2017 207.874 48.2161C207.831 47.0968 207.171 41.0554 207.716 38.0849ZM187.282 70.0138C187.382 70.3008 187.612 70.3295 187.655 70.3151C187.971 70.3151 197.241 71.2048 199.135 70.7026C200.355 70.3725 200.57 68.22 200.699 66.9572C200.828 65.0487 200.699 60.3705 199.896 58.792C198.791 56.6252 190.74 57.357 188.416 57.7588C187.791 57.8479 187.193 58.0732 186.665 58.4189C186.364 58.7795 186.188 59.2274 186.163 59.6961C186.149 63.1663 186.525 66.6272 187.282 70.0138ZM187.712 59.5239C189.98 58.8207 196.423 58.5481 198.475 59.5239C199.178 61.3894 199.551 67.8039 198.705 69.2963C197.37 69.6407 189.234 69.6407 187.87 69.655C187.813 68.5357 187.153 62.4944 187.712 59.5239ZM220.832 58.2037C223.128 54.8171 225.137 51.7605 225.209 51.617C225.281 51.4735 224.233 50.182 223.616 51.1004C219.225 57.8593 219.828 57.2135 219.512 57.0987C216.986 56.1803 208.836 56.496 207.558 57.6871C206.697 58.4907 207.028 61.4037 207.128 62.6522C206.21 62.1356 205.506 61.7625 205.248 61.6621C204.588 61.4037 204.631 62.0495 204.99 62.2791L207.228 63.7141C207.41 65.6 207.702 67.4735 208.104 69.325C208.118 69.4124 208.164 69.4915 208.233 69.5471C208.301 69.6028 208.388 69.631 208.477 69.6263C208.778 69.6263 218.063 70.516 219.957 70.0138C222.425 69.325 221.665 60.2701 220.832 58.2037ZM208.52 58.792C211.896 58.0239 215.393 57.9604 218.795 58.6055L213.815 66.455C213.313 66.168 210.629 64.5895 208.391 63.3267C208.296 61.8287 208.34 60.3252 208.52 58.8351V58.792ZM219.526 68.5501C218.177 68.9088 210.041 68.9088 208.678 68.9232C208.678 68.3492 208.463 66.4693 208.362 64.3886L213.815 67.7752C213.953 67.7902 214.092 67.7659 214.217 67.7049C214.341 67.6439 214.446 67.5489 214.518 67.4308C214.977 66.8424 217.288 63.4845 219.641 60.0261C220.086 62.6091 220.23 67.316 219.555 68.5501H219.526ZM162.471 37.8553C162.86 37.861 163.242 37.7509 163.569 37.539C163.896 37.3271 164.152 37.0229 164.306 36.6651C164.46 36.3072 164.503 35.9118 164.432 35.529C164.361 35.1462 164.177 34.7932 163.905 34.5148C163.632 34.2364 163.284 34.0452 162.902 33.9654C162.521 33.8856 162.125 33.9207 161.764 34.0664C161.403 34.2122 161.093 34.4618 160.874 34.7838C160.655 35.1058 160.536 35.4856 160.534 35.875C160.533 36.3929 160.736 36.8901 161.098 37.2603C161.46 37.6305 161.953 37.8441 162.471 37.8553Z" fill="#100259"/>
</svg>
