<svg width="1728" height="1117" viewBox="0 0 1728 1117" fill="none" xmlns="http://www.w3.org/2000/svg">
<g clip-path="url(#clip0_15_2)">
<rect width="1728" height="1117" rx="33" fill="url(#paint0_linear_15_2)" fill-opacity="0.79"/>
<path d="M110.337 1021.96C111.202 1022.11 115.934 1022.37 115.934 1021.45C115.934 1020.91 115.069 1020.94 115.069 1020.94C115.183 1016.84 119.801 1015.82 123.1 1017.97C124.009 1018.55 124.85 1019.27 125.602 1020.09C120.939 1020.37 114.751 1023.96 115.16 1029.15C115.395 1030.51 115.9 1031.79 116.637 1032.89C117.374 1033.99 118.323 1034.9 119.414 1035.53C120.778 1036.68 122.331 1037.51 123.983 1037.97C125.636 1038.44 127.354 1038.53 129.038 1038.24C132.036 1037.38 134.675 1035.37 136.5 1032.56C140.623 1032.71 144.658 1031.19 147.875 1028.28C148.01 1028.16 148.123 1028.01 148.205 1027.84C148.287 1027.67 148.337 1027.48 148.352 1027.28C148.352 1026.39 148.352 1026.44 143.802 1020.76C143.673 1020.59 143.512 1020.47 143.332 1020.39C143.151 1020.32 142.957 1020.29 142.765 1020.31C142.573 1020.34 142.39 1020.42 142.23 1020.54C142.07 1020.66 141.938 1020.82 141.846 1021.01C141.767 1021.12 141.699 1021.24 141.641 1021.37C141.28 1022.13 140.696 1022.73 139.987 1023.07C139.278 1023.41 138.489 1023.46 137.751 1023.21C135.476 1022.47 132.541 1015.69 127.195 1011.64C122.531 1008.11 116.275 1007.06 111.861 1011.26C109.962 1013.09 108.611 1015.54 107.994 1018.27C107.748 1019.11 107.797 1020.03 108.13 1020.83C108.728 1021.48 109.508 1021.88 110.337 1021.96ZM118.891 1031.46C118.267 1030.96 117.834 1030.21 117.678 1029.36C117.522 1028.52 117.655 1027.64 118.049 1026.9C119.058 1025.33 120.46 1024.14 122.076 1023.47C120.773 1025.96 119.705 1028.59 118.891 1031.33V1031.46ZM140.322 1027.41C140.868 1025.57 140.322 1026.21 141.232 1025.75C141.921 1025.36 142.545 1024.84 143.074 1024.21L145.145 1026.98C143.43 1028.2 141.535 1029.07 139.548 1029.54C139.776 1028.87 140.14 1027.85 140.322 1027.28V1027.41ZM132.086 1020.88C134.247 1023.93 136.045 1026.64 139.343 1026.34C138.873 1027.44 138.492 1028.59 138.206 1029.77C136.545 1029.9 136.318 1029.46 135.658 1029.77C134.361 1030.33 132.223 1035.58 127.036 1035.55C127.358 1034.74 127.566 1033.88 127.65 1032.99C129.118 1032.66 130.491 1031.93 131.654 1030.87C132.152 1030.38 132.476 1029.71 132.564 1028.97C132.564 1028.08 132.291 1026.93 130.607 1025.42C131.234 1023.92 131.73 1022.36 132.086 1020.76V1020.88ZM124.442 1030.56C122.44 1029.36 125.853 1027.23 128.059 1027.31C128.566 1027.31 129.062 1027.48 129.489 1027.79C129.915 1028.1 130.256 1028.53 130.471 1029.05C130.167 1029.6 129.766 1030.08 129.293 1030.45C128.821 1030.82 128.286 1031.07 127.721 1031.2C127.157 1031.33 126.575 1031.33 126.011 1031.2C125.447 1031.07 124.913 1030.81 124.442 1030.43V1030.56ZM127.127 1014.89C128.671 1016.37 130.074 1018.03 131.313 1019.83C130.593 1021.31 130.042 1022.89 129.675 1024.52C128.719 1024.21 127.716 1024.13 126.73 1024.27C125.744 1024.42 124.795 1024.79 123.942 1025.36C119.778 1027.92 120.757 1033.53 126.535 1032.89C126.195 1033.63 125.943 1034.41 125.784 1035.22C123.477 1034.7 121.32 1033.55 119.505 1031.87C121.118 1029.05 122.374 1025.99 123.236 1022.78C124.121 1022.32 125.077 1022.07 126.05 1022.03C127.023 1022 127.992 1022.18 128.901 1022.57L129.379 1020.55L128.878 1020.3C127.809 1019.48 127.331 1018.84 126.103 1017.74C126.559 1016.8 126.903 1015.8 127.127 1014.77V1014.89ZM118.3 1010.8C121.147 1010.86 123.903 1011.93 126.171 1013.87C125.764 1014.91 125.459 1016 125.261 1017.12C124.171 1016.16 122.884 1015.52 121.518 1015.25C120.152 1014.99 118.748 1015.11 117.435 1015.61C117.915 1014.06 118.206 1012.44 118.3 1010.8ZM113.09 1012.79C114.351 1011.69 115.867 1011.02 117.458 1010.85C116.752 1012.57 116.313 1014.41 116.161 1016.3C115.483 1016.76 114.928 1017.42 114.556 1018.2C114.183 1018.98 114.007 1019.87 114.045 1020.76C112.451 1020.85 110.856 1020.58 109.359 1019.96C109.697 1017.12 111.022 1014.54 113.044 1012.79H113.09ZM79.1013 1008.52C75.0063 1006.52 65.9063 1012.44 64.2456 1015.61C64.0054 1016.31 64.0054 1017.09 64.2456 1017.79C65.6788 1023.9 79.0558 1045.51 81.5356 1048.86C81.9678 1049.48 82.5593 1048.63 82.1726 1047.92C80.9896 1045.72 81.1261 1050.14 87.1776 1028.1C87.7382 1027.86 88.2603 1027.51 88.7246 1027.08C88.9356 1026.82 89.0524 1026.47 89.0524 1026.12C89.0524 1025.76 88.9356 1025.42 88.7246 1025.16C88.518 1024.87 88.2812 1024.61 88.0193 1024.39L89.4526 1018.43L95.1401 1021.96C93.9899 1025.19 93.1509 1028.56 92.6376 1031.99C90.3438 1032.92 88.1943 1034.26 86.2676 1035.94C84.9253 1037.6 87.0411 1040.67 88.3606 1042.52C89.6801 1044.36 90.7948 1045.61 91.0451 1045.9C91.2953 1046.18 92.0916 1045.9 92.0233 1045.43C91.8789 1045.06 91.6873 1044.72 91.4546 1044.41C90.2218 1042.25 89.1635 1039.97 88.2923 1037.6C90.0605 1036.41 91.9272 1035.42 93.8661 1034.63C94.5713 1034.35 96.7553 1033.58 97.3468 1033.99C100.266 1035.72 103.31 1037.17 106.447 1038.32C106.574 1038.39 106.719 1038.39 106.851 1038.34C106.984 1038.29 107.092 1038.18 107.152 1038.04C107.212 1037.89 107.22 1037.73 107.173 1037.58C107.126 1037.43 107.029 1037.31 106.902 1037.24L102.966 1034.55C103.804 1032.42 104.341 1030.15 104.559 1027.82L114.273 1033.74C114.864 1034.12 115.319 1033.07 114.887 1032.79C114.455 1032.51 84.9708 1011.41 79.1013 1008.52ZM75.6433 1011.23C76.4372 1010.96 77.2837 1010.96 78.0776 1011.23C78.6008 1011.49 79.8748 1012.26 81.6038 1013.33C81.0206 1015.14 80.6237 1017.02 80.4208 1018.94C78.8966 1017.97 77.9866 1017.22 76.7808 1017.45C76.1236 1017.62 75.5089 1017.95 74.9836 1018.43C75.2111 1016.43 75.4158 1014.89 75.6433 1011.23ZM66.5433 1016.86C68.9028 1014.33 71.7653 1012.47 74.8926 1011.44C73.6784 1017.48 72.8272 1023.6 72.3446 1029.77C70.0505 1025.68 68.1153 1021.35 66.5661 1016.84L66.5433 1016.86ZM76.8718 1038.39C75.6206 1036.06 74.2556 1033.48 72.9588 1030.94C73.7323 1027.28 73.9826 1025.59 74.4603 1022.14C75.7051 1024.57 77.1443 1026.86 78.7601 1029C77.8429 1032.05 77.2175 1035.2 76.8946 1038.39H76.8718ZM80.8531 1045.77C80.0341 1044.31 78.9876 1042.34 77.6226 1039.8C78.4862 1036.59 79.0579 1033.29 79.3288 1029.95C79.8293 1031.3 84.2883 1029.36 85.4941 1028.85C84.6068 1031.99 81.5128 1042.95 80.8758 1045.77H80.8531ZM80.1706 1029.15C78.7607 1026.41 77.5143 1023.56 76.4396 1020.63L77.1448 1020.19C77.4633 1020.4 85.2438 1025.57 85.8126 1025.98C84.0395 1027.25 82.1568 1028.31 80.1933 1029.15H80.1706ZM86.9956 1023.52C85.2893 1022.24 82.9688 1020.68 81.1943 1019.53C81.8015 1017.71 82.1991 1015.82 82.3773 1013.9L88.8383 1017.99C88.7246 1018.96 87.9511 1020.96 87.1321 1023.52H86.9956ZM102.056 1033.76L98.5526 1031.38C96.9958 1030.69 95.2636 1030.69 93.7068 1031.38C94.5886 1028.39 95.2282 1025.31 95.6178 1022.19L103.853 1027.31C103.012 1029.4 102.452 1031.62 102.193 1033.89L102.056 1033.76Z" fill="#100259"/>
<path d="M442.146 1042.88C438.461 1004.27 406.702 944.905 387.728 912.469C398.322 913.423 408.955 913.722 419.578 913.365C422.604 913.365 430.521 912.751 432.045 912.418C432.933 912.213 433.069 911.266 431.727 911.215C430.385 911.164 420.83 910.652 419.533 910.626H396.396C392.847 910.78 387.296 911.138 386.978 911.138C380.153 899.439 375.398 892.117 375.352 892.092C375.3 892.032 375.237 891.986 375.167 891.956C375.098 891.925 375.023 891.913 374.949 891.917C374.875 891.922 374.802 891.945 374.736 891.984C374.67 892.023 374.613 892.078 374.567 892.144C374.521 892.21 374.489 892.286 374.471 892.368C374.454 892.449 374.452 892.534 374.466 892.616C374.48 892.699 374.51 892.777 374.553 892.845C374.596 892.913 374.651 892.971 374.715 893.013C375.762 893.96 421.74 969.557 435.799 1021.63C441.373 1042.29 444.672 1068.22 426.699 1075.39C384.02 1092.54 49.754 1098.12 18.1543 1077.95C13.7635 1075.16 12.7398 1069.35 13.6043 1061.51C14.9465 1050.63 20.1563 1035.91 26.4353 1019.43C33.5105 1027.11 92.2056 1087.75 101.715 1085.47C111.225 1083.2 164.71 1055.24 166.917 1049.89C168.199 1046.17 168.877 1042.23 168.919 1038.24C169.188 1037.83 169.313 1037.31 169.272 1036.8C169.23 1036.29 169.023 1035.81 168.691 1035.45C165.165 1031.51 95.2086 969.097 90.7041 969.276C87.5646 969.429 81.8771 973.065 79.1698 974.857C78.2921 973.241 76.9852 971.976 75.434 971.241C73.8827 970.506 72.1655 970.338 70.5248 970.761C68.9779 971.464 67.5928 972.552 66.4737 973.945C65.3546 975.337 64.5306 976.997 64.0638 978.799C64.0893 978.937 64.1564 979.062 64.2538 979.151C64.3512 979.24 64.4729 979.289 64.5984 979.289C64.724 979.289 64.8457 979.24 64.9431 979.151C65.0405 979.062 65.1076 978.937 65.1331 978.799C66.5014 976.195 68.6706 974.246 71.2301 973.321C72.2943 973.137 73.383 973.296 74.3697 973.781C75.3563 974.266 76.2004 975.056 76.8038 976.06L51.5058 988.22C50.1626 986.666 48.4856 985.528 46.6373 984.917C42.3148 983.637 39.4028 986.837 37.6738 991.522C37.6357 991.657 37.6401 991.802 37.6862 991.934C37.7324 992.065 37.8174 992.175 37.927 992.244C38.0366 992.313 38.164 992.338 38.2878 992.314C38.4116 992.289 38.5242 992.218 38.6065 992.111C41.5185 987.375 44.8855 985.762 48.9123 989.551C44.0438 991.983 37.2415 995.439 32.464 998.101C32.8053 997.487 81.8998 897.442 81.8998 897.186C84.0611 892.68 88.4063 884.616 92.8881 883.567C94.9138 883.07 96.9801 882.812 99.0533 882.799C95.8911 888.687 70.2291 936.559 70.1836 943.317C70.1836 950.997 71.3666 949.794 75.0066 950.997C78.6466 952.201 282.327 950.793 282.691 950.793C286.218 950.793 300.004 950.281 301.278 949.231C305.237 945.954 304.35 941.065 302.621 935.919C302.211 934.69 300.141 929.596 297.365 922.786C309.309 918.741 318.295 923.887 319.114 945.826C319.933 964.796 313.29 970.581 300.573 969.762C290.358 969.097 283.306 965.717 281.076 970.197C278.574 975.189 285.49 986.402 288.493 991.061C288.06 991.061 269.019 990.626 264.218 990.396C257.454 990.101 250.681 990.195 243.925 990.677C239.273 990.793 234.648 991.506 230.139 992.802C228.433 993.749 226.226 998.69 225.293 1000.76C223.45 1004.83 215.056 1030.38 212.735 1037.76C211.37 1042.01 206.752 1056.09 209.846 1058.57C209.732 1061.31 210.119 1064.97 212.257 1066.25C214.396 1067.53 243.789 1068.45 246.041 1068.5C250.022 1068.63 290.267 1069.22 315.952 1067.94C341.637 1066.66 352.853 1063.89 352.193 1063.97C352.845 1063.75 353.431 1063.34 353.885 1062.77C354.339 1062.2 354.643 1061.5 354.764 1060.74C355.114 1058.85 355.004 1056.89 354.445 1055.06C357.312 1048.79 335.631 996.719 329.625 993.058C329.27 992.833 328.872 992.71 328.465 992.7C327.259 992.7 300.277 991.42 289.789 991.036C287.514 987.426 280.121 973.833 282.964 970.94C287.287 966.69 323.391 987.989 321.458 945.596C320.456 926.421 312.608 915.183 296.683 921.685C295.295 918.306 283.647 890.3 280.53 882.85C292.604 883.663 304.717 883.363 316.748 881.954C316.921 884.343 317.532 886.666 318.542 888.777C319.552 890.887 320.94 892.739 322.618 894.216C331.718 901.896 367.936 900.744 374.511 891.349C376.353 888.514 377.626 885.262 378.243 881.819C378.86 878.376 378.805 874.824 378.082 871.407C378.687 870.973 379.157 870.338 379.425 869.589C379.789 868.796 379.425 867.797 377.855 867.439C375.83 867.097 373.782 866.96 371.735 867.029C371.735 864.93 371.849 861.013 371.735 856.559C371.94 856.405 373.419 854.408 373.578 854.178C375.391 851.794 376.822 849.074 377.809 846.139C378.56 843.759 378.856 841.019 376.877 839.688C373.828 837.819 371.69 841.25 370.666 845.09C369.71 839.176 367.504 830.498 362.226 831.368C353.262 832.904 359.45 857.352 362.362 867.029C359.804 866.624 357.208 866.624 354.65 867.029C357.494 858.991 358.95 848.597 351.647 847.035C350.54 846.76 349.385 846.856 348.326 847.311C347.266 847.766 346.349 848.56 345.686 849.595C345.54 849.016 345.266 848.488 344.889 848.06C344.512 847.633 344.044 847.32 343.531 847.151C343.017 846.982 342.473 846.963 341.951 847.095C341.429 847.227 340.945 847.506 340.545 847.906C337.201 850.619 339.112 856.84 343.002 858.888C342.797 861.52 342.797 864.167 343.002 866.799C340.58 866.469 338.129 866.53 335.722 866.978C335.587 860.727 334.978 854.501 333.902 848.367C335.284 847.26 336.447 845.842 337.316 844.202C338.186 842.563 338.743 840.738 338.952 838.843C339.271 835.439 338.202 832.597 335.676 831.855C332.514 830.933 330.649 833.416 330.103 836.975C327.304 832.623 321.822 831.061 319.16 836.053C310.629 826.069 306.511 831.65 308.672 836.053C310.287 839.432 314.496 841.327 317.772 842.376C317.772 848.111 320.047 852.949 322.868 857.89C324.756 861.218 326.872 864.418 328.51 866.773C324.97 866.645 321.427 866.902 317.931 867.541C315.793 868.181 315.452 869.922 317.431 871.176C316.805 874.177 316.575 877.265 316.748 880.341C304.527 879.609 292.275 879.935 280.098 881.314C279.324 879.445 277.027 873.992 276.754 873.352C276.481 872.712 278.665 865.288 281.736 796.271C295.841 794.939 359.268 796.527 365.092 793.992C365.426 793.857 365.722 793.625 365.95 793.319C366.178 793.013 366.329 792.645 366.389 792.251C368.323 785.109 369.642 723.72 366.389 718.011C365.593 716.603 362.749 716.168 361.179 715.912C340.909 712.584 256.324 714.018 251.979 716.603C247.634 719.189 249.476 744.43 250.295 749.448C206.365 747.861 104.923 750.958 95.3678 754.978C93.0928 755.899 92.2511 759.406 91.7961 762.043C88.0196 783.982 98.6211 854.587 102.17 876.399C101.943 876.399 102.17 876.399 99.3946 881.263C97.0453 881.067 94.6835 881.204 92.3648 881.672C87.1778 882.568 82.4003 890.632 79.7613 895.65C79.6476 895.906 72.9363 908.45 71.9353 910.498C66.2251 909.5 39.6758 909.884 36.3088 910.088C32.9418 910.293 29.4838 910.575 26.4353 910.831C25.8893 910.831 25.8438 912.008 26.4353 912.034C32.8053 912.469 35.1485 912.623 40.0853 912.7C52.1655 912.904 69.9788 913.468 70.5476 913.391C69.3646 915.72 51.847 950.793 49.5038 955.759C39.3118 977.263 31.3038 996.949 30.826 998.613C28.1814 999.967 25.6976 1001.69 23.4323 1003.73C22.7016 1005.99 22.2648 1008.35 22.1355 1010.75C22.0218 1014.87 23.3413 1015.87 25.366 1018.17C19.9331 1031.27 15.4666 1044.85 12.0118 1058.77C10.8839 1064.41 10.8373 1070.25 11.8753 1075.9C12.8042 1081.55 14.5405 1087 17.0168 1092.03C18.1291 1093.3 19.5706 1094.14 21.1345 1094.43C27.1178 1096.33 45.659 1098.76 51.8698 1099.55C51.4016 1102.68 51.2717 1105.86 51.483 1109.03C51.4892 1112.29 51.9105 1115.53 52.7343 1118.65C52.7538 1118.8 52.825 1118.94 52.9329 1119.04C53.0407 1119.13 53.1768 1119.17 53.3124 1119.16C53.4481 1119.14 53.5727 1119.06 53.6601 1118.95C53.7475 1118.83 53.7907 1118.68 53.7808 1118.52C54.1447 1115.33 54.2438 1112.11 54.0765 1108.9C54.0616 1105.81 53.7488 1102.72 53.1438 1099.71C56.2833 1100.02 59.3091 1100.27 61.9481 1100.37C61.5284 1103.36 61.4139 1106.39 61.6068 1109.41C61.6145 1112.67 62.0358 1115.91 62.8581 1119.04C62.8581 1119.19 62.9132 1119.34 63.0113 1119.45C63.1094 1119.56 63.2425 1119.62 63.3813 1119.62C63.5201 1119.62 63.6532 1119.56 63.7513 1119.45C63.8494 1119.34 63.9046 1119.19 63.9046 1119.04C64.2808 1115.85 64.3874 1112.62 64.2231 1109.41C64.2075 1106.42 63.9023 1103.44 63.3131 1100.53C68.3863 1100.66 143.052 1108.21 271.999 1105.34C306.556 1104.57 348.098 1102.78 382.314 1098.56C381.862 1101.64 381.732 1104.78 381.927 1107.9C381.938 1111.15 382.367 1114.39 383.201 1117.5C383.185 1117.59 383.186 1117.67 383.204 1117.76C383.222 1117.85 383.257 1117.92 383.306 1117.99C383.355 1118.06 383.417 1118.12 383.488 1118.15C383.558 1118.19 383.635 1118.21 383.713 1118.21C383.791 1118.21 383.868 1118.19 383.938 1118.15C384.008 1118.12 384.07 1118.06 384.119 1117.99C384.169 1117.92 384.203 1117.85 384.222 1117.76C384.24 1117.67 384.241 1117.59 384.225 1117.5C384.622 1114.31 384.729 1111.09 384.543 1107.87C384.519 1104.71 384.191 1101.56 383.565 1098.48C386.09 1098.17 391.937 1097.35 392.438 1097.28C391.99 1100.35 391.868 1103.47 392.074 1106.57C392.075 1109.83 392.496 1113.07 393.325 1116.19C393.344 1116.35 393.416 1116.48 393.523 1116.58C393.631 1116.67 393.767 1116.72 393.903 1116.7C394.039 1116.68 394.163 1116.61 394.251 1116.49C394.338 1116.37 394.381 1116.22 394.371 1116.07C394.746 1112.88 394.845 1109.67 394.667 1106.47C394.653 1103.31 394.324 1100.17 393.689 1097.1C403.949 1095.54 435.321 1090.77 439.598 1080.92C444.649 1069.68 444.239 1055.06 442.146 1042.88ZM235.121 1001.66C235.371 1000.97 242.993 999.1 251.319 1001.66C251.395 1001.64 251.474 1001.64 251.55 1001.66C251.626 1001.68 251.697 1001.72 251.757 1001.78C251.818 1001.83 251.866 1001.9 251.9 1001.98C251.934 1002.06 251.951 1002.15 251.951 1002.24C251.951 1002.32 251.934 1002.41 251.9 1002.49C251.866 1002.57 251.818 1002.64 251.757 1002.69C251.697 1002.75 251.626 1002.79 251.55 1002.81C251.474 1002.83 251.395 1002.83 251.319 1002.81C247.173 1003.64 242.939 1003.76 238.761 1003.17C236.805 1002.81 234.325 1002.79 235.053 1001.66H235.121ZM352.079 1062.54C331.035 1067.04 214.783 1066.02 213.031 1065.1C211.279 1064.18 211.12 1061.21 211.074 1059.26C223.678 1063.87 346.824 1060.31 353.672 1056.24C354.036 1058.49 354.127 1062.1 352.011 1062.54H352.079ZM307.921 1001.94C307.921 1001.07 312.926 1000.58 313.154 1000.56C316.13 1000.3 319.119 1000.3 322.094 1000.56C323.755 1000.76 326.053 1001.02 325.871 1001.81C325.689 1002.61 322.254 1002.94 321.662 1003.04C319.439 1003.27 317.206 1003.38 314.974 1003.35C313.472 1003.3 307.762 1002.99 307.853 1001.94H307.921ZM337.155 1010.47C342.847 1022.67 347.625 1035.39 351.442 1048.48C351.927 1050.14 352.195 1051.86 352.238 1053.6C341.978 1057.19 223.723 1060.87 211.757 1057.01C211.188 1056.83 211.029 1057.01 210.892 1055.93C210.028 1048.97 220.152 1021.3 222.495 1014.84C265.538 1013.23 336.7 1010.75 337.087 1010.47H337.155ZM318 841.224C315.511 839.686 313.254 837.717 311.311 835.387C310.424 833.877 310.629 832.827 313.245 834.261C314.883 835.106 317.181 836.616 318.728 837.666C318.33 838.805 318.085 840.004 318 841.224ZM372.6 845.807C374.42 842.12 376.217 841.071 376.035 843.247C375.057 847.14 373.667 850.888 371.894 854.408C371.758 851.848 371.599 850.133 371.417 848.443C371.508 848.085 371.963 847.01 372.531 845.807H372.6ZM362.931 868.079C363.386 869.538 363.682 870.408 363.704 870.46C363.729 870.532 363.767 870.598 363.815 870.654C363.863 870.71 363.92 870.755 363.984 870.786C364.047 870.817 364.116 870.834 364.185 870.835C364.254 870.836 364.323 870.821 364.387 870.792C365.388 870.357 363.909 869.308 361.543 853.871C360.838 849.263 358.745 835.055 362.885 834.389C366.252 833.826 368.072 843.221 368.709 846.933C369.89 854.088 370.65 861.323 370.984 868.591C370.983 868.732 371.027 868.87 371.108 868.978C371.189 869.087 371.303 869.158 371.427 869.18C371.552 869.202 371.679 869.172 371.786 869.097C371.892 869.022 371.971 868.906 372.008 868.77C372.015 868.625 372.015 868.48 372.008 868.335C374.065 868.403 376.109 868.72 378.105 869.282C377.851 869.616 377.532 869.879 377.172 870.05C372.395 872.815 357.949 872.277 352.966 872.175C353.649 870.639 354.127 869.461 354.65 868.053C357.369 868.556 360.141 868.565 362.863 868.079H362.931ZM345.186 862.472C345.709 857.352 346.869 849.186 351.465 850.159C356.06 851.131 354.9 858.632 353.899 863.65C353.282 866.528 352.522 869.366 351.624 872.149H344.799C344.744 868.919 344.85 865.689 345.118 862.472H345.186ZM342.297 850.44C342.402 850.327 342.528 850.24 342.666 850.184C342.803 850.129 342.95 850.106 343.095 850.118C343.241 850.13 343.383 850.177 343.512 850.254C343.641 850.332 343.754 850.439 343.844 850.568C344.206 850.977 344.533 851.422 344.822 851.899C344.176 853.532 343.724 855.254 343.48 857.019C342.297 855.176 340.772 851.823 342.297 850.44ZM335.13 834.875C338.088 835.925 335.767 844.68 333.788 847.343C333.241 844.587 332.425 841.909 331.354 839.355C332.014 837.103 333.128 834.159 335.13 834.85V834.875ZM329.534 868.36C330.649 869.948 331.377 870.92 331.377 870.92C331.467 871.021 331.587 871.081 331.713 871.089C331.84 871.097 331.965 871.054 332.065 870.966C332.166 870.878 332.234 870.753 332.258 870.612C332.282 870.472 332.26 870.327 332.196 870.204C332.196 870.204 328.169 863.752 324.847 857.071C322.345 851.951 319.956 846.831 320.616 841.173C321.139 836.719 323.232 834.824 326.758 837.41C331.854 841.096 334.175 863.829 334.903 870.69C334.91 870.869 334.966 871.042 335.064 871.184C335.162 871.326 335.296 871.431 335.449 871.484C336.063 871.484 335.972 870.741 335.949 870.383C335.927 870.024 335.949 868.232 335.949 868.053C338.366 868.397 340.812 868.397 343.229 868.053C343.366 869.922 343.525 871.381 343.639 872.149C335.563 872.149 325.803 872.764 319.114 869.82C322.552 869.054 326.034 868.567 329.534 868.36ZM318.637 872.124C321.964 873.575 325.471 874.438 329.033 874.684C333.06 875.093 360.474 875.144 363.591 874.965C368.29 874.878 372.943 873.9 377.354 872.072C377.778 875.216 377.618 878.424 376.886 881.495C376.154 884.566 374.865 887.433 373.1 889.916C367.572 897.212 332.605 898.876 324.21 892.22C318.682 887.944 317.681 879.394 318.637 872.098V872.124ZM300.3 947.285C300.778 949.001 83.8563 949.077 83.6288 949.052C74.5288 949.052 76.8038 949.052 73.7553 948.207C72.9363 948.002 72.7771 948.002 72.6178 947.106C72.4248 945.701 72.3714 944.275 72.4586 942.857C72.5063 942.962 72.5833 943.046 72.6779 943.097C72.7724 943.148 72.8792 943.162 72.9818 943.138C72.9818 943.138 300.232 939.657 301.71 939.605C302.325 942.601 302.416 945.391 300.3 947.285ZM364.296 791.919C364.296 791.919 364.432 791.663 364.478 791.739C364.523 791.816 364.296 791.893 364.182 791.919H364.296ZM251.16 727.355C251.16 725.691 251.751 719.394 253.071 718.626C256.074 716.936 351.51 715.502 364.546 720.085C366.821 725.461 366.093 785.851 364.182 791.919C352.989 793.89 296.66 793.736 282.009 795.426C282.896 775.278 283.283 758.306 282.555 755.003C282.415 754.573 282.188 754.184 281.892 753.869C281.596 753.554 281.239 753.32 280.849 753.186C275.866 750.754 257.12 750.062 251.66 749.858C250.952 742.384 250.785 734.859 251.16 727.355ZM93.8436 791.816C93.5023 786.44 91.8188 759.304 96.3688 757.41C98.6438 756.514 106.652 755.618 118.277 754.85C140.549 753.288 175.653 752.034 207.594 751.778C214.692 751.778 274.661 751.189 280.53 755.72C282.259 764.578 276.731 862.984 275.502 872.482C221.744 874.453 158.044 877.423 103.831 875.938C102.921 870.076 95.9593 824.84 93.8436 791.816ZM103.126 877.653C103.13 877.594 103.13 877.534 103.126 877.474C141.459 878.805 261.42 874.376 276.026 874.274C277.641 878.498 300.323 935.125 301.278 938.274C301.028 938.274 72.7998 941.756 72.5041 942.012C75.3706 931.209 99.0761 885.538 103.126 877.653ZM165.665 1049.17C163.982 1052.86 112.976 1078.51 102.489 1082.07C102.692 1080.89 102.768 1079.69 102.716 1078.49C118.209 1072.44 151.833 1056.5 166.917 1045.21C166.629 1046.58 166.21 1047.92 165.665 1049.2V1049.17ZM167.235 1043.52C162.685 1046.54 158.34 1048.64 102.693 1077.1C102.695 1075.94 102.558 1074.79 102.284 1073.67C109.564 1069.83 158.931 1048.3 167.736 1039.73C167.622 1040.83 167.463 1042.16 167.235 1043.54V1043.52ZM50.0498 990.985C51.1438 992.435 51.8208 994.224 51.9914 996.117C52.1621 998.009 51.8182 999.915 51.0053 1001.58C50.6413 1002.22 51.5058 1002.89 51.8698 1002.22C53.2432 1000.54 54.0551 998.37 54.1671 996.088C54.2791 993.805 53.6843 991.549 52.484 989.705C63.5406 983.996 74.4151 978.62 77.3953 977.161C78.1409 978.865 78.54 980.735 78.5636 982.635C78.5872 984.534 78.2348 986.416 77.5318 988.143C77.2588 988.962 78.0778 989.269 78.4646 988.732C79.7158 986.943 80.4945 984.794 80.7118 982.53C80.929 980.267 80.576 977.98 79.6931 975.932C82.1501 974.37 87.8831 970.812 90.6813 970.812C94.1848 970.812 165.279 1035.89 166.598 1037.37C160.66 1044.26 105.537 1068.81 100.896 1071.32C91.1136 1068.76 31.4175 1010.98 25.821 1005.04C29.3018 1001.79 46.1368 993.033 50.0498 990.985ZM24.092 1006.22C31.19 1014.02 90.4083 1072.19 100.327 1074.03C100.128 1075 100.037 1075.99 100.054 1076.98C84.1293 1068.22 38.6293 1023.88 23.5688 1009.62C23.637 1009.62 23.9783 1007.11 24.1603 1006.22H24.092ZM24.4333 1015C23.7916 1013.9 23.4732 1012.6 23.5233 1011.29C38.4018 1028.18 80.3983 1069.73 100.032 1078.38C99.9911 1079.75 100.114 1081.12 100.396 1082.45C88.7248 1079.51 25.9803 1017.1 24.5015 1015H24.4333ZM438.484 1080.07C423.787 1112.89 24.9793 1104.32 18.5183 1091.52C15.7796 1086.16 13.9295 1080.29 13.0583 1074.18C13.9359 1076.35 15.4018 1078.14 17.2443 1079.3C50.7323 1101.24 383.906 1095.51 427.404 1077.92C436.618 1074.18 441.259 1066.12 442.306 1054.88C442.923 1063.51 441.593 1072.18 438.438 1080.07H438.484Z" fill="#100259"/>
<path d="M97.8244 905.967C258.69 908.527 274.046 906.966 278.551 906.172C279.62 905.993 280.303 905.583 280.257 904.175C280.257 900.463 272.522 883.439 270.475 882.262C269.565 881.724 106.674 884.31 106.105 884.514C105.999 884.543 105.9 884.597 105.814 884.672C105.728 884.747 105.656 884.841 105.605 884.95C104.058 887.791 96.5049 901.82 96.8462 904.994C96.8831 905.259 97.001 905.501 97.1796 905.679C97.3582 905.857 97.5862 905.958 97.8244 905.967ZM106.765 886.281C108.403 886.05 268.655 884.258 269.633 884.361C271.331 887.11 272.852 889.993 274.183 892.988C270.452 892.988 103.694 893.986 102.829 894.012C103.83 891.759 105.15 889.199 106.765 886.281ZM102.215 895.241C103.102 895.241 271.84 894.268 274.729 894.191C276.226 897.328 277.409 900.642 278.255 904.073C270.156 905.532 196.355 904.815 98.6434 904.073C99.5564 900.972 100.737 897.98 102.17 895.138L102.215 895.241ZM223.382 914.671C222.928 913.541 222.187 912.587 221.251 911.931C220.316 911.275 219.229 910.946 218.127 910.985C212.348 910.985 163.822 909.474 159.454 911.471C156.666 915.273 154.508 919.609 153.084 924.271C152.948 925.398 153.448 925.91 154.063 925.986C167.713 927.65 212.963 929.238 224.702 926.806C226.158 926.498 226.34 924.758 226.044 923.094C225.339 920.217 224.45 917.402 223.382 914.671ZM154.7 924.271C156.006 920.117 157.78 916.168 159.978 912.521C163.436 911.241 208.413 913.903 218.195 913.878C218.777 913.854 219.353 914.02 219.854 914.356C220.354 914.693 220.758 915.184 221.016 915.772C222.122 918.431 222.983 921.21 223.587 924.066C212.053 926.089 163.072 924.937 154.7 924.271ZM381.381 917.948C378.174 912.982 362.089 913.212 356.697 913.391C352.147 913.391 335.608 914.236 335.608 919.254C335.627 919.66 335.732 920.056 335.914 920.407C336.096 920.759 336.35 921.057 336.655 921.276C337.087 921.66 334.107 955.401 338.202 973.5C339.544 979.491 341.273 982.46 346.346 984.943C356.083 989.705 372.236 988.655 378.72 978.492C380.016 975.522 379.743 966.87 379.857 964.233C389.935 966.486 398.194 961.878 400.332 949.666C401.674 941.807 399.945 936.662 396.965 933.538C394.974 931.714 392.62 930.459 390.105 929.88C387.589 929.3 384.987 929.414 382.519 930.21C382.433 930.243 382.341 930.252 382.251 930.237C382.161 930.221 382.076 930.182 382.002 930.122C381.929 930.062 381.869 929.982 381.828 929.891C381.788 929.799 381.767 929.698 381.768 929.596C381.768 928.239 382.2 919.049 381.381 917.948ZM338.156 918.486C344.299 914.441 369.324 914.134 377.4 918.255C377.673 918.409 378.697 918.998 378.697 919.254C378.697 919.51 377.65 920.124 377.4 920.252C371.303 923.35 349.531 924.758 338.088 920.047C337.292 919.561 338.088 918.588 338.088 918.486H338.156ZM383.156 932.822C385.223 932.151 387.405 932.055 389.512 932.541C391.62 933.027 393.592 934.081 395.259 935.612C397.716 938.172 398.944 942.575 397.807 949.103C397.581 951.373 396.882 953.55 395.767 955.458C394.652 957.367 393.153 958.952 391.391 960.086C387.66 961.975 383.459 962.337 379.516 961.11C379.322 961.031 379.116 960.997 378.91 961.012C378.704 961.026 378.503 961.088 378.32 961.194C378.136 961.299 377.974 961.447 377.843 961.626C377.712 961.805 377.616 962.013 377.559 962.236C376.945 964.182 377.81 972.041 376.558 977.007C370.803 985.788 356.083 986.582 347.37 982.46C342.956 980.335 341.728 978.134 340.545 972.834C337.496 960.265 337.314 934.665 337.997 922.07C345.163 925.884 369.983 926.985 379.743 921.353C379.743 929.289 378.879 930.62 380.653 932.233C380.997 932.524 381.392 932.728 381.813 932.83C382.233 932.931 382.668 932.929 383.088 932.822H383.156ZM162.162 987.068C156.187 981.366 149.76 976.293 142.961 971.913C140.341 970.174 137.556 968.774 134.657 967.74C132.223 967.023 131.199 968.431 131.699 970.3C132.725 972.983 134.08 975.491 135.726 977.75C140.961 985.206 146.98 991.92 153.653 997.743C163.8 1007.29 176.949 1018.86 186.55 1027.08C187.039 1027.48 187.594 1027.77 188.184 1027.93C188.773 1028.09 189.385 1028.11 189.982 1028C190.58 1027.89 191.152 1027.64 191.664 1027.28C192.176 1026.91 192.618 1026.44 192.965 1025.88C194.649 1023.8 195.695 1020.17 193.807 1018.2C191.623 1016 178.269 1001.84 162.162 987.068ZM140.367 981.385L137.25 975.727C138.36 975.209 139.298 974.314 139.935 973.167L144.872 975.42C143.633 975.697 142.514 976.436 141.696 977.519C140.878 978.602 140.41 979.965 140.367 981.385ZM147.351 987.913C145.707 986.356 144.185 984.643 142.801 982.793C142.961 979.695 143.825 978.313 146.578 978.21C148.412 979.197 150.144 980.407 151.742 981.82C150.519 982.155 149.427 982.933 148.634 984.033C147.841 985.134 147.39 986.497 147.351 987.913ZM186.254 1025.16C183.729 1022.78 150.15 990.729 148.079 988.681C148.253 987.248 148.809 985.908 149.675 984.838C150.54 983.768 151.673 983.019 152.925 982.691C160.774 989.244 172.058 1000.1 191.737 1018.53C190.971 1018.49 190.205 1018.63 189.495 1018.96C188.784 1019.28 188.145 1019.78 187.622 1020.41C187.1 1021.04 186.707 1021.79 186.47 1022.61C186.234 1023.44 186.16 1024.3 186.254 1025.16ZM366.525 1053.53C369.369 1055.7 371.348 1054.7 373.191 1051.68C377.741 1044.41 393.666 1012.23 393.666 1011.98C393.666 1011.72 393.848 1012.21 393.098 1001.86C393.065 1001.48 392.94 1001.1 392.736 1000.79C392.532 1000.47 392.256 1000.22 391.937 1000.07C391.618 999.915 391.269 999.86 390.924 999.91C390.58 999.96 390.254 1000.11 389.981 1000.35L382.2 1006.73C382.2 1006.73 364.933 1046.9 364.751 1047.25C364.439 1048.38 364.441 1049.58 364.759 1050.7C365.076 1051.83 365.693 1052.81 366.525 1053.53ZM390.618 1003.48C390.754 1005.35 390.936 1007.83 391.073 1009.54C389.383 1008.63 387.614 1007.92 385.795 1007.42L390.618 1003.48ZM384.111 1009.16C386.083 1010.73 388.361 1011.75 390.754 1012.13C390.413 1012.8 373.032 1048.48 372.85 1048.84C372.322 1047.63 371.453 1046.65 370.38 1046.06C369.306 1045.46 368.087 1045.28 366.912 1045.54C368.687 1041.83 383.474 1010.44 384.111 1009.16Z" fill="#100259"/>
<path d="M373.647 958.396C373.402 958.008 373.09 957.68 372.731 957.429C372.371 957.179 371.971 957.011 371.554 956.936C370.208 956.532 368.84 956.224 367.459 956.015C368.232 962.108 368.687 968.815 368.665 969.404C368.63 969.793 368.46 970.152 368.192 970.401C367.923 970.651 367.578 970.771 367.231 970.735C366.883 970.69 366.564 970.493 366.343 970.187C366.122 969.881 366.016 969.489 366.048 969.096C366.048 968.661 365.912 966.895 365.798 955.759C361.248 955.119 339.34 953.199 340.204 958.114C340.204 958.37 338.407 970.914 345.369 976.93C352.33 982.946 366.253 981.768 371.122 975.65C372.503 973.788 373.414 971.542 373.761 969.148C374.298 965.585 374.259 961.943 373.647 958.396ZM379.107 935.228C379.107 936.38 377.742 945.186 376.832 957.013L377.924 957.269C381.927 958.225 386.096 957.714 389.822 955.81C391.121 954.998 392.197 953.8 392.931 952.346C393.666 950.892 394.03 949.238 393.985 947.567C394.14 945.489 393.819 943.401 393.053 941.502C392.287 939.603 391.101 937.957 389.61 936.72C388.118 935.483 386.369 934.696 384.531 934.435C382.692 934.174 380.825 934.447 379.107 935.228ZM380.131 936.098C381.583 935.839 383.067 935.934 384.484 936.376C385.901 936.817 387.217 937.595 388.343 938.658C389.425 939.775 390.263 941.157 390.792 942.698C391.321 944.239 391.526 945.896 391.392 947.541C391.187 954.12 385.181 955.375 379.425 954.709C379.698 950.05 379.926 944.7 380.131 936.098ZM355.765 785.826C355.759 786.282 355.834 786.735 355.984 787.158C356.134 787.582 356.357 787.968 356.641 788.294C356.924 788.62 357.262 788.879 357.635 789.058C358.008 789.236 358.409 789.33 358.814 789.333C359.433 789.348 360.042 789.156 360.564 788.78C361.085 788.404 361.495 787.861 361.742 787.222C361.988 786.583 362.06 785.875 361.947 785.19C361.835 784.504 361.543 783.872 361.11 783.374C360.677 782.876 360.122 782.534 359.516 782.393C358.909 782.251 358.279 782.316 357.706 782.579C357.132 782.842 356.641 783.291 356.296 783.869C355.95 784.448 355.766 785.129 355.765 785.826ZM106.766 870.28C107.289 871.432 107.972 871.56 108.404 871.202C108.836 870.843 252.912 869.435 263.628 868.795C265.932 868.835 268.23 868.508 270.453 867.823C275.571 862.703 277.573 766.984 275.571 762.555C270.453 751.061 110.247 758.459 100.396 761.813C92.547 764.475 103.149 862.114 106.766 870.28ZM99.9635 765.96C99.9635 765.499 100.464 763.707 100.851 763.579C111.748 759.893 269.975 753.826 274.275 763.451C274.641 765.377 274.809 767.344 274.775 769.314C275.162 780.475 274.775 804.386 273.751 825.813C273.547 829.909 271.931 863.471 269.565 866.517C260.124 868.77 114.637 869.282 108.176 869.563C104.491 859.938 96.5283 782.856 99.9635 765.96ZM359.11 729.378C359.728 729.393 360.336 729.201 360.857 728.826C361.378 728.451 361.788 727.91 362.035 727.272C362.282 726.635 362.355 725.928 362.244 725.244C362.134 724.559 361.845 723.927 361.414 723.428C360.983 722.929 360.43 722.585 359.825 722.441C359.22 722.296 358.591 722.357 358.017 722.616C357.443 722.875 356.951 723.321 356.603 723.896C356.254 724.471 356.066 725.149 356.061 725.845C356.052 726.303 356.124 726.758 356.273 727.185C356.422 727.612 356.645 728 356.928 728.329C357.212 728.658 357.551 728.92 357.925 729.1C358.3 729.28 358.702 729.374 359.11 729.378Z" fill="#100259"/>
<path d="M144.485 830.472H171.512C174.64 830.459 177.635 829.049 179.84 826.554C182.045 824.058 183.28 820.68 183.274 817.16V792.482C183.274 788.955 182.04 785.57 179.839 783.059C177.637 780.549 174.646 779.114 171.512 779.067H144.485C142.918 779.061 141.365 779.403 139.916 780.075C138.467 780.746 137.15 781.734 136.042 782.981C134.934 784.228 134.056 785.71 133.459 787.34C132.862 788.971 132.558 790.718 132.564 792.482V817.16C132.57 818.915 132.883 820.652 133.485 822.27C134.088 823.889 134.967 825.358 136.074 826.595C137.181 827.831 138.494 828.809 139.937 829.475C141.38 830.14 142.926 830.479 144.485 830.472ZM134.498 792.482C134.539 789.523 135.607 786.699 137.473 784.614C139.339 782.529 141.855 781.347 144.485 781.32H171.512C172.84 781.303 174.158 781.583 175.39 782.142C176.621 782.702 177.742 783.53 178.688 784.58C179.633 785.629 180.385 786.879 180.899 788.258C181.412 789.636 181.678 791.115 181.681 792.61V817.16C181.675 818.656 181.408 820.136 180.893 821.516C180.379 822.896 179.628 824.148 178.684 825.201C177.74 826.254 176.62 827.087 175.39 827.654C174.159 828.22 172.842 828.508 171.512 828.501H144.485C143.168 828.494 141.864 828.196 140.649 827.622C139.434 827.049 138.332 826.211 137.404 825.158C136.477 824.105 135.743 822.857 135.244 821.485C134.745 820.112 134.492 818.643 134.498 817.16V792.482ZM217.558 848.751C218.013 850.261 219.151 849.928 219.469 848.981C219.901 847.624 222.427 837.871 222.745 836.181C224.497 835.567 219.56 837.487 234.825 831.24C234.984 831.171 235.12 831.05 235.216 830.892C235.312 830.735 235.363 830.548 235.363 830.357C235.363 830.166 235.312 829.979 235.216 829.822C235.12 829.664 234.984 829.543 234.825 829.474L211.438 818.952C211.295 818.876 211.136 818.843 210.977 818.857C210.819 818.871 210.667 818.932 210.535 819.033C210.404 819.134 210.299 819.272 210.23 819.433C210.161 819.594 210.13 819.772 210.142 819.951C210.142 819.951 216.307 844.68 217.558 848.751ZM212.485 821.691L232.186 830.421C229.547 831.522 225.088 833.416 222.95 834.389C221.994 834.799 221.608 834.978 221.38 835.311C221.153 835.644 221.949 833.647 218.605 845.244L212.485 821.691ZM266.175 746.632C266.202 746.786 266.275 746.924 266.384 747.022C266.492 747.12 266.627 747.173 266.766 747.17C267.244 747.17 281.963 748.757 284.966 747.861C286.9 747.272 287.241 743.432 287.423 741.179C287.651 737.774 287.423 729.429 286.149 726.587C284.42 722.747 271.658 724.027 267.949 724.77C266.965 724.925 266.024 725.328 265.197 725.947C264.715 726.577 264.434 727.37 264.4 728.2C264.378 734.399 264.973 740.582 266.175 746.632ZM266.835 727.918C270.429 726.664 280.667 726.178 283.92 727.918C285.035 731.246 285.626 742.69 284.284 745.352C282.168 745.966 269.246 745.966 267.085 745.992C267.017 743.995 265.97 733.218 266.835 727.918ZM296.705 746.53C296.736 746.681 296.811 746.816 296.918 746.914C297.026 747.011 297.159 747.065 297.297 747.067C297.775 747.067 312.494 748.654 315.497 747.758C317.431 747.17 317.772 743.33 317.977 741.077C318.181 737.672 317.977 729.326 316.68 726.485C314.951 722.619 302.188 723.925 298.48 724.667C297.498 724.834 296.559 725.235 295.727 725.845C295.255 726.481 294.976 727.27 294.931 728.098C294.91 734.297 295.505 740.479 296.705 746.53ZM297.365 727.816C300.96 726.536 311.197 726.075 314.45 727.816C315.565 731.144 316.157 742.587 314.814 745.224C312.699 745.864 299.777 745.864 297.615 745.89C297.547 743.893 296.501 733.115 297.365 727.816ZM328.646 747.656C328.673 747.81 328.747 747.948 328.855 748.046C328.963 748.144 329.099 748.197 329.238 748.194C329.716 748.194 344.435 749.781 347.438 748.885C349.372 748.296 349.713 744.456 349.895 742.203C350.122 738.798 349.895 730.453 348.621 727.611C346.892 723.771 334.129 725.051 330.421 725.794C329.438 725.956 328.499 726.358 327.668 726.971C327.186 727.601 326.906 728.394 326.872 729.224C326.849 735.423 327.445 741.606 328.646 747.656ZM329.306 728.942C332.901 727.688 343.138 727.202 346.391 728.942C347.506 732.27 348.098 743.714 346.755 746.376C344.64 746.99 331.718 746.99 329.556 747.016C329.488 745.019 328.442 734.242 329.306 728.942ZM296.91 785.903C297.069 786.415 297.433 786.466 297.502 786.44C298.002 786.44 312.699 788.027 315.702 787.131C317.635 786.543 317.977 782.703 318.181 780.45C318.386 777.045 318.181 768.699 316.907 765.883C315.156 762.018 302.393 763.323 298.707 764.04C297.717 764.199 296.769 764.601 295.932 765.218C295.455 765.861 295.176 766.66 295.136 767.496C295.114 773.687 295.709 779.861 296.91 785.903ZM297.593 767.189C301.187 765.935 311.402 765.448 314.655 767.189C315.77 770.517 316.361 781.96 315.019 784.623C312.903 785.237 300.004 785.237 297.843 785.263C297.752 783.266 296.705 772.488 297.593 767.189ZM350.1 764.834C353.74 758.792 356.925 753.339 357.038 753.083C357.152 752.827 355.491 750.523 354.513 752.162C347.552 764.219 348.507 763.067 348.007 762.863C344.003 761.224 331.081 761.787 329.056 763.912C327.691 765.346 328.214 770.543 328.373 772.77C326.917 771.848 325.803 771.183 325.393 771.003C324.347 770.543 324.415 771.695 324.984 772.104L328.533 774.664C328.82 778.028 329.283 781.371 329.92 784.674C329.943 784.83 330.015 784.971 330.124 785.07C330.234 785.169 330.372 785.22 330.512 785.211C330.99 785.211 345.709 786.799 348.712 785.903C352.625 784.674 351.419 768.52 350.1 764.834ZM330.58 765.883C335.932 764.513 341.477 764.4 346.869 765.551L338.975 779.554C338.179 779.042 333.924 776.226 330.375 773.973C330.225 771.301 330.294 768.618 330.58 765.96V765.883ZM348.029 783.291C345.891 783.931 332.992 783.931 330.83 783.957C330.83 782.933 330.489 779.579 330.33 775.867L338.975 781.909C339.193 781.936 339.414 781.892 339.611 781.784C339.809 781.675 339.975 781.505 340.09 781.295C340.818 780.245 344.48 774.255 348.211 768.085C348.917 772.693 349.144 781.09 348.075 783.291H348.029ZM257.575 728.533C258.193 728.543 258.799 728.347 259.317 727.969C259.835 727.59 260.241 727.048 260.485 726.409C260.728 725.771 260.798 725.066 260.685 724.383C260.571 723.7 260.28 723.07 259.849 722.573C259.417 722.077 258.864 721.736 258.26 721.593C257.655 721.451 257.027 721.514 256.455 721.774C255.882 722.033 255.391 722.479 255.044 723.053C254.696 723.628 254.509 724.305 254.504 725C254.504 725.924 254.825 726.811 255.399 727.471C255.973 728.132 256.755 728.513 257.575 728.533Z" fill="#100259"/>
</g>
<defs>
<linearGradient id="paint0_linear_15_2" x1="864" y1="0" x2="864" y2="1117" gradientUnits="userSpaceOnUse">
<stop offset="0.109375" stop-color="#EAC6FF"/>
<stop offset="0.515625" stop-color="#CF95F2"/>
<stop offset="1" stop-color="#823CAB" stop-opacity="0.82"/>
</linearGradient>
<clipPath id="clip0_15_2">
<rect width="1728" height="1117" rx="33" fill="white"/>
</clipPath>
</defs>
</svg>
