<svg xmlns="http://www.w3.org/2000/svg" width="55" height="55" viewBox="0 0 55 55" fill="none">
  <path d="M45.4094 27.1351C45.5618 37.0564 37.6093 45.257 27.688 45.4094C17.7667 45.5618 9.56606 37.6093 9.41367 27.688C9.26128 17.7666 17.2138 9.56604 27.1351 9.41365C37.0564 9.26126 45.257 17.2137 45.4094 27.1351ZM49.9089 27.066C49.7181 14.6474 39.4845 4.72343 27.066 4.91418C14.6475 5.10493 4.72345 15.3386 4.9142 27.7571C5.10495 40.1756 15.3386 50.0996 27.7571 49.9089C40.1756 49.7181 50.0996 39.4845 49.9089 27.066ZM27.4461 29.6613L36.445 29.523L36.3759 25.0236L27.377 25.1618L27.2733 18.4126L18.4126 27.5497L27.5498 36.4105L27.4461 29.6613Z" fill="#0A0226"/>
</svg>