<svg width="762" height="854" viewBox="0 0 762 854" fill="none" xmlns="http://www.w3.org/2000/svg">
<g clip-path="url(#clip0_4_64)">
<path d="M316.651 701.856C292.684 701.856 285.493 685.085 277.211 652.942C276.693 650.721 276.57 648.407 276.849 646.132C277.127 643.858 277.802 641.667 278.834 639.686C279.918 637.198 281.832 635.291 284.159 634.38C294.17 631.565 304.44 631.36 314.376 631.156C328.028 630.883 340.952 630.627 353.633 624.331C357.838 621.975 361.892 619.296 365.769 616.313C377.358 607.936 390.479 598.45 402.311 602.886C410.275 605.871 414.674 610.239 415.402 615.869C417.086 628.921 397.867 644.019 385.155 654.017C382.895 655.723 380.938 657.327 379.421 658.606C374.431 663.081 369.694 667.902 365.238 673.04C354.362 684.982 342.014 698.631 327.497 700.934C323.906 701.529 320.281 701.837 316.651 701.856ZM285.281 639.345C284.189 639.966 283.313 640.981 282.793 642.228C281.341 645.037 280.917 648.372 281.61 651.526C290.833 687.473 297.143 700.627 326.936 695.884C339.981 693.803 351.206 681.4 362.128 669.406C366.724 664.105 371.614 659.137 376.767 654.529C378.283 653.198 380.331 651.646 382.622 649.837C392.982 641.699 412.247 626.549 410.973 616.62C410.503 613.054 407.135 610.085 400.946 607.765C391.177 604.097 379.027 612.883 368.302 620.629C364.226 623.772 359.952 626.577 355.514 629.023C341.984 635.847 328.013 636.069 314.558 636.342C304.819 636.461 294.792 636.734 285.281 639.345Z" fill="#2E3120"/>
<path d="M720 367.02C713.456 366.977 707.089 364.626 701.797 360.298C682.077 344.653 673.825 306.915 672.232 289.137C670.032 264.348 678.512 244.489 686.703 225.312C691.133 214.939 695.698 204.225 698.626 192.726C701.084 183.07 701.326 170.718 701.66 157.649C702.282 127.451 702.995 93.2273 732.393 82.206C738.916 79.7492 741.494 81.1994 744.058 83.3149C744.376 83.5709 744.695 83.8438 745.044 84.0997C745.196 84.2021 745.337 84.3232 745.469 84.458L748.32 87.7337C748.423 87.8409 748.515 87.9611 748.594 88.092C752.34 94.3533 750.732 106.757 748.851 113.12C740.933 139.82 732.848 171.724 732.848 205.846C732.848 222.088 739.416 234.662 746.379 247.986C757.589 269.466 770.301 293.812 754.752 337.556C749.352 352.74 740.296 362.516 728.585 365.809C725.779 366.607 722.895 367.015 720 367.02ZM738.005 86.0276C736.537 86.1251 735.09 86.4702 733.712 87.0513C707.348 96.9466 706.711 127.861 706.089 157.769C705.816 171.178 705.558 183.838 702.934 194.142C699.9 206.085 695.243 216.97 690.799 227.513C682.516 246.929 674.689 265.252 676.767 288.625C678.527 308.348 687.386 342.589 704.406 356.101C707.68 358.78 711.448 360.597 715.432 361.418C719.415 362.239 723.511 362.043 727.417 360.844C740.357 357.21 747.137 345.131 750.459 335.645C765.189 294.238 753.599 272.042 742.389 250.58C735.427 237.255 728.236 223.487 728.236 205.846C728.236 170.991 736.443 138.592 744.467 111.499C746.197 105.682 747.259 95.4793 744.862 91.1459L742.344 88.2626C741.995 88.0067 741.661 87.7337 741.327 87.4607C740.413 86.543 739.231 86.0332 738.005 86.0276Z" fill="#2E3120"/>
<path d="M309.734 473.786C308.785 473.789 307.837 473.715 306.897 473.565C299.798 472.422 294.762 467.047 291.971 457.579C289.179 448.11 294.125 439.034 298.918 430.281C301.952 424.788 304.758 419.584 305.471 414.739C311.782 372.087 289.756 344.278 239.986 331.84L237.923 331.328C230.551 329.503 222.936 327.626 216.367 323.361C215.896 323.051 215.462 322.672 215.078 322.235C214.21 321.293 213.611 320.081 213.358 318.755C213.105 317.429 213.208 316.048 213.655 314.788C214.103 313.528 214.874 312.447 215.871 311.683C216.867 310.919 218.043 310.506 219.249 310.497C230.414 310.173 240.016 309.252 248.496 308.45C276.544 305.805 296.794 303.895 339.632 325.306C367.999 339.483 377.555 364.699 369.637 404.673C367.206 417.125 362.73 428.957 356.44 439.562C350.296 449.509 327.436 473.786 309.734 473.786ZM273.616 311.93C265.652 311.93 257.734 312.681 248.89 313.517C240.35 314.336 230.687 315.223 219.371 315.581C219.133 315.565 218.896 315.612 218.678 315.718C218.46 315.825 218.267 315.987 218.114 316.192C217.962 316.397 217.854 316.64 217.8 316.9C217.746 317.161 217.748 317.432 217.804 317.692C217.88 318.04 218.051 318.352 218.294 318.584C218.4 318.7 218.517 318.802 218.643 318.891C224.604 322.764 231.87 324.555 238.894 326.295L240.972 326.807C293.533 339.944 316.818 369.801 309.961 415.524C309.097 421.358 305.896 427.21 302.801 432.892C298.342 441.03 294.14 448.724 296.279 455.924C298.524 463.499 302.21 467.593 307.549 468.463C322.628 470.903 346.337 446.916 352.693 436.594C358.621 426.512 362.858 415.294 365.192 403.496C372.64 365.808 364.191 343.1 337.782 329.912C309.051 315.581 291.197 311.93 273.616 311.93Z" fill="#2E3120"/>
<path d="M242.807 19.8827C239.561 26.0417 236.193 32.4224 236.193 40.3557C236.193 46.5829 238.514 52.1618 240.744 57.5701C242.61 61.5374 243.983 65.7739 244.825 70.161C246.569 82.1036 240.274 92.3401 234.783 98.9427C218.006 118.819 183.344 133.73 160.605 130.864C149.153 129.413 141.613 125.097 137.563 117.693C129.645 103.242 136.501 79.2203 143.54 57.8431C144.602 54.6357 145.633 51.1211 146.725 47.4019C150.533 34.4868 154.841 19.8315 161.895 11.7106C162.653 10.8575 163.563 9.86801 164.595 8.75905C166.764 6.38759 169.388 3.53843 171.982 0.365117H165.778C164.261 2.0712 162.744 3.67492 161.515 5.07391C160.469 6.21699 159.528 7.24064 158.755 8.11074C150.867 17.0847 146.377 32.3371 142.417 45.7981C141.34 49.4833 140.324 52.9466 139.293 56.0346C131.875 78.572 124.669 103.959 133.771 120.371C138.549 129.089 147.423 134.327 160.196 135.948C162.266 136.204 164.348 136.33 166.43 136.323C190.064 136.323 222.025 121.582 238.181 102.457C247.146 91.8454 251.029 80.3975 249.406 69.3421C248.5 64.4885 247.005 59.7982 244.961 55.4034C242.838 50.2851 240.82 45.4569 240.82 40.3557C240.82 33.8214 243.717 28.4131 246.797 22.493C250.119 16.1805 253.79 9.16851 253.517 0.313934H248.966C249.193 7.71834 246.023 13.6555 242.807 19.8827Z" fill="#2E3120"/>
<path d="M77.8271 20.1728C83.2273 24.6086 90.3265 25.6152 98.9122 23.1755C106.163 21.1111 114.263 11.8129 123.456 0.365112H117.282C109.925 9.35618 103.129 16.6923 97.8049 18.2108C90.4782 20.2922 84.8352 19.5756 80.512 16.044C76.5073 12.7342 73.8982 7.18945 72.1234 0.365112H67.3451C69.3475 8.72493 72.533 15.8222 77.8271 20.1728Z" fill="#2E3120"/>
<path d="M288.497 38.0184C287.101 48.4255 284.917 61.9036 280.336 73.8462C272.398 94.0686 262.087 113.004 249.679 130.147C243.611 138.524 235.223 145.843 227.062 152.94C224.832 154.868 222.647 156.762 220.569 158.656C213.197 165.376 204.732 170.418 195.646 173.499C145.906 190.406 123.046 145.143 100.945 101.365C84.0313 67.8919 68.0581 36.1929 40.9659 32.4566C27.3137 30.5458 13.7676 32.3371 0.282146 35.6981V40.9529C13.6765 37.5407 27.1316 35.664 40.4047 37.5407C65.2367 40.9529 80.6637 71.56 96.9858 103.89C115.72 140.998 136.593 182.37 175.517 182.37C182.804 182.288 190.04 181.005 196.996 178.566C206.644 175.308 215.631 169.959 223.451 162.819C225.514 160.959 227.684 159.082 229.883 157.154C238.256 149.886 246.903 142.38 253.259 133.542C265.933 116 276.463 96.6287 284.568 75.9447C289.362 63.3879 291.607 49.4833 293.032 38.7691C294.957 26.0698 295.08 13.1076 293.397 0.365112H288.846C290.454 10.8234 290.514 23.1584 288.497 38.0184Z" fill="#2E3120"/>
<path d="M758.742 539.488C753.079 539.002 747.394 538.922 741.722 539.249C711.141 541.279 683.685 558.016 657.123 574.121C637.95 585.774 618.108 597.836 597.493 604.012C546.692 619.264 505.978 601.367 479.78 552.249C471.453 536.656 465.673 524.355 467.023 507.737C468.95 483.852 476.671 463.379 484.847 441.797C488.912 431.049 493.114 419.925 496.542 408.341C501.26 392.406 501.973 377.137 502.731 360.963C502.974 355.845 503.217 350.385 503.626 345.028C504.324 335.457 507.024 325.767 509.694 316.4C511.856 309.164 513.618 301.786 514.973 294.306C519.144 268.544 507.677 222.821 491.81 202.024C471.786 175.733 442.783 164.388 405.618 168.295C367.847 172.27 333.534 190.764 316.439 201.444C291.03 217.328 246.053 240.684 230.444 218.744C229.492 217.436 228.797 215.916 228.404 214.284C228.012 212.652 227.932 210.945 228.169 209.275C229.489 197.503 242.565 183.684 250.073 177.303C255.929 172.373 262.209 167.459 268.276 162.716C297.947 139.547 328.619 115.577 334.611 71.7647C338.358 44.3309 335.749 22.5954 328.179 0.43335H323.265C331.062 22.493 333.883 43.9044 330.106 70.9799C324.357 112.557 294.565 135.879 265.622 158.451C259.554 163.211 253.198 168.158 247.282 173.14C245.052 175.034 225.469 191.907 223.588 208.559C223.276 210.909 223.403 213.306 223.961 215.598C224.521 217.889 225.499 220.024 226.834 221.866C235.177 233.604 250.817 235.771 273.343 228.298C286.555 223.913 301.77 216.355 318.593 205.846C335.415 195.336 369.03 177.201 405.982 173.328C441.584 169.575 469.283 180.34 488.305 205.283C503.171 224.783 514.336 269.227 510.437 293.317C509.111 300.587 507.394 307.76 505.295 314.796C502.61 324.436 499.834 334.399 499.091 344.533C498.681 349.976 498.423 355.401 498.181 360.639C497.453 376.454 496.755 391.348 492.219 406.703C488.852 418.083 484.635 429.104 480.66 439.75C472.712 460.803 464.475 482.573 462.457 507.243C460.94 525.361 467.357 538.959 475.836 554.842C496.876 594.27 526.82 614.436 563.62 614.436C575.454 614.325 587.225 612.472 598.631 608.925C619.777 602.596 639.846 590.38 659.308 578.591C685.429 562.707 712.4 546.278 742.01 544.333C747.571 544.01 753.145 544.09 758.696 544.572L758.742 539.488Z" fill="#2E3120"/>
<path d="M758.742 454.73C734.855 463.718 711.71 475.032 689.571 488.544C681.714 493.514 674.163 499.071 666.968 505.179C659.187 511.474 651.147 517.991 642.561 522.82C615.348 538.174 565.987 538.174 543.142 515.347C512.076 484.279 521.132 446.08 529.884 409.126C533.222 395.068 538.819 377.581 544.765 359.052C565.183 295.313 590.607 215.98 562.695 168.892C531.614 116.464 463.094 119.313 409.335 139.462C405.057 141.066 399.748 143.762 394.166 146.628C376.797 155.448 353.057 167.561 339.951 156.506C336.022 153.196 333.883 149.682 333.398 145.894C332.457 138.353 338.055 130.028 343.455 122.009C345.579 118.87 347.581 115.884 349.234 112.898C351.449 108.923 353.785 104.914 356.212 100.666C371.761 73.6585 389.402 43.0684 386.171 10.2433C385.832 6.90769 385.269 3.60559 384.488 0.365112H379.77C380.654 3.7921 381.284 7.296 381.651 10.8405C384.685 41.7889 367.528 71.56 352.39 97.8508C349.932 102.116 347.611 106.142 345.381 110.152C343.864 112.95 341.877 115.833 339.829 118.904C333.853 127.776 327.694 136.954 328.892 146.611C329.545 151.729 332.351 156.489 337.22 160.601C352.39 173.465 376.66 161.164 396.016 151.285C401.523 148.487 406.71 145.843 410.761 144.325C462.928 124.773 529.247 121.702 558.903 171.741C585.54 216.68 560.556 294.665 540.472 357.312C534.511 375.943 528.868 393.549 525.485 407.812C516.384 446.25 506.949 486.019 540.124 519.169C551.652 530.702 569.886 537.577 591.426 538.533C593.094 538.533 594.763 538.652 596.432 538.652C614.18 538.652 631.867 534.54 644.594 527.392C653.513 522.376 661.705 515.739 669.623 509.324C676.659 503.358 684.037 497.921 691.709 493.048C713.186 479.962 735.611 468.947 758.742 460.121V454.73Z" fill="#2E3120"/>
<path d="M758.742 0.365112H758.378C758.378 7.18945 754.95 13.8432 748.29 20.3945C717.785 50.3534 676.54 45.3034 636.615 40.4069C617.122 38.0184 596.978 35.5446 578.79 37.4042C562.817 39.1103 549.149 47.3677 535.922 55.4034C522.694 63.439 510.513 70.8775 495.966 72.686C476.959 75.0745 456.526 73.249 441.357 67.8407C420.651 60.4534 409.077 47.0094 406.953 27.8672C405.922 18.6373 407.499 9.68033 409.471 0.365112H404.799C402.903 9.49266 401.356 18.8591 402.433 28.5155C406.817 68.2843 447.076 78.845 479.067 78.845C484.88 78.845 490.689 78.4918 496.467 77.7872C511.894 75.8593 525.212 67.7554 538.091 59.9074C551.5 51.7524 564.167 44.0409 579.199 42.5054C596.932 40.6969 615.969 43.0172 636.114 45.491C677.071 50.5069 719.332 55.7275 751.294 24.2332C754.142 21.5045 756.647 18.3536 758.742 14.8668V0.365112Z" fill="#2E3120"/>
<path d="M564.364 0.365112C561.694 1.35464 558.948 2.37829 556.127 3.47019C532.6 12.4101 505.932 22.5613 484.832 8.34959C481.695 6.34756 478.966 3.62746 476.822 0.365112H471.392C474 5.5899 477.864 9.8826 482.541 12.7513C490.658 18.0892 499.929 20.7993 509.33 20.5822C525.349 20.5822 542.111 14.2015 557.583 8.31547C562.453 6.45583 567.064 4.69857 571.493 3.19721C575.275 1.96261 579.127 1.01643 583.022 0.365112H564.364Z" fill="#2E3120"/>
<path d="M758.742 123.203C758.56 123.886 758.348 124.585 758.166 125.285C752.432 147.873 753.296 173.055 758.742 198.015V123.203Z" fill="#2E3120"/>
<path d="M758.742 430.64L756.406 431.339C745.788 434.615 736.231 440.876 727.054 446.916C722.503 449.867 717.952 452.938 713.22 455.565C686.097 470.818 622.675 489.158 598.935 462.39C544.705 401.466 578.411 306.727 603.015 237.511C604.79 232.393 607.05 227.496 609.432 222.156C614.134 211.732 618.989 200.949 620.263 189.519C622.569 168.773 607.505 157.103 594.217 146.713C578.851 134.77 565.578 124.534 575.134 102.952C577.668 97.2366 581.672 91.8624 585.556 86.6418C586.769 84.9357 587.983 83.3832 589.136 81.7624C594.809 73.778 605.276 75.5693 614.498 77.1389C616.106 77.4119 617.654 77.6849 619.14 77.8896C639.33 80.7388 686.628 90.8729 689.874 123.732C692.271 147.907 682.168 165.634 671.489 184.383C667.123 191.781 663.103 199.429 659.445 207.296C656.047 215.025 652.725 222.156 649.524 228.98C628.181 274.379 614.089 304.372 643.851 362.942C650.935 376.898 666.18 401.431 688.646 409.006C707.152 415.251 733.137 411.6 758.758 400.476V394.846C733.531 406.123 707.653 410.098 689.95 404.127C669.001 397.064 654.545 373.708 647.795 360.417C619.277 304.287 632.171 276.819 653.544 231.386C656.775 224.562 660.112 217.396 663.541 209.702C667.108 201.983 671.037 194.483 675.312 187.233C685.93 168.466 696.943 149.221 694.379 123.254C690.784 86.7783 640.954 75.8935 619.702 72.9079C618.185 72.7031 616.668 72.4301 615.151 72.1742C605.23 70.4681 592.867 68.3526 585.54 78.6574C584.418 80.244 583.235 81.8307 582.036 83.4514C577.789 88.7211 574.098 94.5264 571.039 100.751C559.707 126.223 575.923 138.831 591.593 151.012C605.003 161.454 617.684 171.298 615.712 188.973C614.544 199.516 609.872 209.889 605.336 219.921C603.015 225.039 600.619 230.414 598.753 235.634C573.678 306.147 539.335 402.694 595.719 466.075C605.488 477.079 620.93 481.208 637.92 481.208C665.558 481.208 697.277 470.255 715.283 460.155C720.106 457.442 724.824 454.337 729.375 451.334C738.294 445.448 747.578 439.392 757.635 436.287L758.773 435.928L758.742 430.64Z" fill="#2E3120"/>
<path d="M758.742 797.294C752.887 798.744 747.046 800.143 741.297 801.508C713.917 808.043 688.069 814.219 670.761 823.96C657.776 831.25 646.138 841.242 636.463 853.407H642.743C651.426 843.25 661.589 834.837 672.793 828.533C689.586 819.098 715.161 812.99 742.238 806.524C747.684 805.228 753.205 803.897 758.742 802.532V797.294Z" fill="#2E3120"/>
<path d="M467.751 835.152C462.518 805.739 436.321 797.294 413.142 789.856C395.788 784.26 379.39 778.988 375.113 765.868C371.563 755.034 376.205 739.014 389.311 716.903C395.304 706.512 403.693 698.145 413.582 692.694C426.567 685.392 438.065 674.575 448.714 659.613C452.051 654.938 454.402 649.001 456.678 643.269C462.093 629.62 467.296 616.586 485.181 616.586C487.869 616.604 490.551 616.854 493.205 617.336C506.857 619.691 513.957 626.993 521.496 634.721C532.948 646.476 544.795 658.607 579.245 652.175C614.377 645.589 652.057 626.686 685.429 610.017L691.315 607.066C698.331 603.365 705.148 599.207 711.732 594.611C722.639 587.326 733.925 579.768 746.622 576.936C750.702 576.015 754.783 575.333 758.757 574.872V569.754C754.419 570.248 750.05 570.965 745.666 571.955C732.256 574.957 720.637 582.737 709.396 590.244C702.965 594.739 696.304 598.807 689.449 602.425L683.548 605.377C650.525 621.926 613.072 640.693 578.501 647.159C546.267 653.215 535.724 642.416 524.575 630.968C516.869 623.069 508.905 614.914 493.918 612.303C465.916 607.441 458.801 625.389 452.536 641.222C450.649 646.62 448.178 651.737 445.179 656.457C434.94 670.822 423.942 681.195 411.564 688.156C400.999 694.027 392.026 702.976 385.58 714.071C371.411 737.957 366.739 755.017 370.881 767.642C375.962 783.185 393.437 788.815 411.928 794.769C434.864 802.157 458.589 809.8 463.276 836.159C464.284 841.852 464.958 847.614 465.294 853.407H469.844C469.503 847.277 468.804 841.179 467.751 835.152Z" fill="#2E3120"/>
<path d="M758.742 751.367C753.994 753.636 749.307 755.922 744.695 758.191C715.237 772.573 687.416 786.154 654.636 793.541C637.115 797.482 616.713 801.389 613.315 801.014C601.786 792.057 586.01 761.194 582.976 747.357C576.438 717.961 601.574 697.318 621.779 680.735C625.192 677.92 628.423 675.275 631.396 672.665C642.606 662.872 654.423 661.2 666.938 659.426C674.822 658.596 682.612 656.882 690.192 654.307C699.638 650.449 708.846 645.889 717.755 640.659C728.752 634.551 740.114 628.238 751.339 625.082C753.751 624.4 756.239 623.888 758.757 623.461V618.343C755.889 618.79 753.043 619.405 750.232 620.186C738.536 623.478 726.947 629.91 715.737 636.138C707.015 641.258 698 645.72 688.751 649.496C681.452 651.973 673.952 653.625 666.361 654.427C653.786 656.218 640.801 658.061 628.605 668.724C625.693 671.266 622.538 673.842 619.094 676.691C597.857 694.179 571.281 715.931 578.562 748.688C581.899 763.736 598.146 795.861 611.085 805.569C611.358 805.774 611.798 806.098 613.846 806.098C617.865 806.098 628.135 804.801 655.531 798.642C688.797 791.152 716.829 777.47 746.546 762.968L758.787 757.031L758.742 751.367Z" fill="#2E3120"/>
<path d="M758.742 714.856C753.235 717.228 747.789 719.685 742.389 722.107C719.833 732.344 696.487 742.836 671.731 745.361C654.817 747.067 644.639 744.849 643.789 739.219C641.984 727.277 674.022 700.338 692.922 695.015C711.004 689.896 730.193 684.13 748.032 676.111C750.717 674.9 754.403 673.398 758.742 671.744V666.404C753.129 668.502 748.73 670.276 746.348 671.351C728.752 679.267 709.745 685 691.815 690.118C673.885 695.236 636.766 723.301 639.315 740.141C640.695 749.336 651.829 751.196 661.234 751.196C665.663 751.196 669.698 750.787 672.141 750.531C697.564 747.937 721.213 737.257 744.088 726.935C748.927 724.752 753.812 722.551 758.742 720.401V714.856Z" fill="#2E3120"/>
<path d="M707.425 853.407H707.167C704.765 852.768 702.26 852.797 699.87 853.493L707.425 853.407Z" fill="#2E3120"/>
<path d="M758.742 838.633C753.731 841.964 749.797 847.009 747.516 853.032C747.474 853.155 747.439 853.28 747.41 853.408H752.355C753.884 850.058 756.067 847.141 758.742 844.877V838.633Z" fill="#2E3120"/>
<path d="M569.43 786.648C557.583 776.668 550.241 766.943 544.083 753.073C538.713 740.994 535.861 728.113 533.1 715.658C529.581 699.723 525.925 683.243 516.99 668.161C513.259 661.865 507.403 658.231 499.576 657.344C485.393 655.775 469.663 663.776 467.038 666.728C462.154 672.221 457.603 676.708 453.583 680.666C441.691 692.404 433.105 700.884 428.357 722.244C424.625 738.997 442.798 750.991 462.032 763.684C478.506 774.569 495.541 785.864 497.999 799.649C499.349 806.746 497.832 822.698 496.315 841.09C495.966 845.065 495.602 849.193 495.253 853.407H499.804C500.137 849.364 500.486 845.406 500.82 841.584C502.534 821.981 503.854 806.49 502.504 798.642C499.637 782.554 481.707 770.731 464.368 759.266C446.636 747.579 429.904 736.524 432.801 723.438C437.2 703.63 444.937 696.004 456.617 684.471C460.682 680.462 465.294 675.941 470.269 670.293C471.968 668.383 484.301 662.224 495.875 662.224C496.982 662.224 498.074 662.224 499.151 662.394C505.538 663.111 510.286 665.994 513.228 670.925C521.723 685.256 525.106 700.576 528.701 716.801C531.522 729.529 534.42 742.683 540.017 755.273C546.525 769.912 554.261 780.165 566.7 790.658C579.821 801.713 577.5 829.795 573.89 853.322H578.441C582.218 828.737 584.372 799.256 569.43 786.648Z" fill="#2E3120"/>
<path d="M446.575 563.066C426.961 548.36 397.048 568.184 368.12 587.224C351.828 597.99 336.432 608.141 324.918 610.495C294.398 616.74 266.684 614.999 234.495 610.495C227.82 609.557 220.205 606.281 212.166 602.818C197.982 596.71 183.344 590.415 170.465 595.243C156.024 600.651 152.065 632.777 148.895 658.573C147.378 670.311 146.073 681.417 144.056 686.075C143.206 687.167 138.337 690.067 133.65 692.899C111.457 706.19 65.2822 733.845 49.0663 782.963C43.5599 799.632 38.6451 820.344 49.5972 832.645C63.2495 847.999 91.3277 832.986 108.105 824.029C110.835 822.562 113.202 821.299 115.128 820.378C150.867 803.146 200.637 786.631 234.707 805.791C251.787 815.396 269.02 834.351 281.853 853.442H287.602C274.208 832.662 255.61 811.83 236.74 801.218C225.241 794.752 212.135 792.125 198.422 792.125C169.601 792.125 138.14 803.709 113.338 815.669C111.336 816.624 108.939 817.921 106.148 819.405C90.4479 827.782 64.1748 841.806 52.8131 829.028C43.7116 818.791 48.2623 800.024 53.3288 784.755C68.9531 737.394 114.051 710.387 135.789 697.386C144.405 692.268 147.181 690.562 148.091 688.446C150.457 683.106 151.822 672.051 153.4 659.255C156.252 636.138 160.15 604.473 171.906 600.071C183.223 595.823 197.102 601.777 210.527 607.578C218.855 611.161 226.698 614.539 233.918 615.562C266.547 620.135 294.595 621.892 325.737 615.562C338.039 613.054 353.77 602.664 370.426 591.677C396.85 574.224 426.81 554.433 444.042 567.348C458.255 578.011 447.713 600.89 440.735 616.023C440.007 617.593 439.324 619.077 438.717 620.442C429.707 640.71 403.146 677.834 383.638 687.576L380.923 688.924C362.143 698.239 330.728 713.833 327.633 738.23C323.507 770.645 349.72 793.763 377.464 818.177C390.297 829.454 403.252 840.902 413.203 853.442H419.271C408.758 839.196 394.332 826.503 380.286 814.202C353.603 790.743 328.407 768.581 332.154 739.032C334.899 717.433 366.042 701.976 382.773 693.684L385.504 692.319C406.21 681.963 433.272 644.225 442.798 622.796L444.785 618.446C452.036 602.613 464.171 576.271 446.575 563.066Z" fill="#2E3120"/>
<path d="M345.821 836.978C339.465 826.963 333.822 815.873 328.361 805.142C324.964 798.471 321.444 791.493 317.743 785.01C311.22 773.273 308.308 759.76 305.501 746.675C302.377 732.241 299.161 717.313 291.091 704.603C279.911 686.979 265.03 679.011 250.65 671.163C241.927 666.437 232.887 661.541 224.544 654.512C221.843 652.226 218.87 647.79 215.73 643.098C207.842 631.292 198.013 616.603 184.193 624.331C177.034 628.358 172.68 633.305 170.89 639.464C167.856 649.701 172.999 660.824 177.474 670.6C180.962 678.192 184.254 685.392 182.419 689.538C179.188 696.806 169.464 700.235 160.878 703.187C156.902 704.441 153.017 706.038 149.259 707.964C141.583 712.28 74.4292 751.11 81.2857 784.362C81.5064 785.812 82.0609 787.172 82.8938 788.306C83.7268 789.441 84.8093 790.31 86.0336 790.828C95.3172 794.684 114.658 779.619 135.349 762.49C139.001 759.278 142.804 756.288 146.741 753.533C175.046 737.632 216.367 728.13 240.198 744.883C284.659 776.139 295.202 798.284 311.16 831.791C314.345 838.479 317.743 845.61 321.641 853.305H326.89C322.461 844.672 318.684 836.756 315.164 829.42C299.449 796.407 288.102 772.556 242.61 740.567C232.583 733.538 220.554 730.825 208.146 730.825C184.527 730.825 159.604 740.635 144.708 748.995C140.499 751.853 136.447 754.992 132.573 758.395C119.542 769.195 95.2868 789.276 87.5354 786.051C87.0212 785.821 86.5727 785.437 86.2385 784.941C85.9043 784.445 85.6971 783.855 85.6392 783.236C80.7092 759.351 126.384 726.543 151.216 712.57C154.765 710.782 158.425 709.288 162.168 708.1C171.603 704.773 182.312 701.003 186.438 691.79C189.321 685.324 185.513 677.015 181.478 668.212C177.443 659.408 172.786 649.274 175.183 641.017C176.563 636.24 180.174 632.265 186.181 628.887C195.859 623.427 203.003 632.589 212.059 646.101C215.396 651.1 218.552 655.826 221.768 658.538C230.459 665.874 239.698 670.873 248.632 675.702C263.134 683.55 276.832 690.954 287.344 707.503C294.929 719.446 297.871 733.214 300.996 747.818C303.894 761.296 306.897 775.217 313.814 787.655C317.409 794.121 320.898 800.979 324.266 807.616C329.787 818.45 335.491 829.659 341.983 839.878C345.166 844.628 348.67 849.094 352.465 853.237L352.556 853.339H358.897C357.85 852.094 356.773 850.865 355.727 849.654C352.148 845.712 348.837 841.475 345.821 836.978Z" fill="#2E3120"/>
<path d="M123.486 847.914C117.179 848.707 111.012 850.559 105.192 853.407H120.999C121.954 853.237 122.91 853.083 123.85 853.015C132.713 852.28 141.615 852.411 150.457 853.407H177.337C159.757 848.391 141.582 846.537 123.486 847.914Z" fill="#2E3120"/>
<path d="M107.817 579.069C103.023 576.169 98.5027 573.422 94.4677 570.692C85.9876 564.741 77.8785 558.146 70.1969 550.953C51.4175 534.148 33.6544 518.264 0.282146 520.721V525.839C32.1374 523.416 48.4595 538.038 67.3451 554.962C75.1906 562.291 83.4664 569.017 92.1164 575.094C96.2576 577.875 100.824 580.638 105.663 583.624C116.979 590.448 128.689 597.58 135.728 605.496C137.078 607.015 136.805 613.174 136.668 616.142C136.668 617.251 136.577 618.258 136.577 619.06C136.577 640.368 131.556 659.067 107.058 681.127C102.507 685.221 96.9706 687.576 91.1153 690.05C84.7594 692.762 78.176 695.56 72.8061 700.832C32.5925 740.362 -10.1694 798.471 10.2331 853.407H15.2086C-5.95239 800.689 36.2483 743.57 75.8854 704.637C80.6182 699.962 86.5038 697.454 92.799 694.793C98.7302 692.268 104.934 689.674 109.971 685.068C128.72 668.195 141.204 650.52 141.204 619.008C141.204 618.275 141.204 617.302 141.295 616.347C141.522 611.229 141.796 604.95 139.02 601.828C131.435 593.383 119.436 586.115 107.817 579.069Z" fill="#2E3120"/>
<path d="M0.282146 715.948V721.698C1.29402 722.379 2.23087 723.192 3.07328 724.12C4.1958 725.4 4.5902 728.283 3.95309 732.224C3.18622 736.754 1.95432 741.168 0.282146 745.378V757.133C4.1958 748.927 7.44201 739.987 8.44317 733.043C9.27748 727.259 8.54936 723.045 6.28915 720.503C4.54691 718.591 2.51193 717.048 0.282146 715.948Z" fill="#2E3120"/>
<path d="M50.5074 601.043C47.4736 595.277 44.3487 589.306 38.2203 585.177C29.2402 579.12 15.9064 575.691 0.297316 575.316V580.434C14.0406 580.809 27.1165 583.624 35.8994 589.544C41.0266 592.957 43.7268 598.075 46.5937 603.637C48.1899 606.849 49.9895 609.928 51.9788 612.85C63.3861 628.887 67.4514 641.853 64.1142 651.407C57.7128 669.321 26.5552 674.576 0.4035 678.483L0.4035 683.601C27.9053 679.489 60.959 674.03 68.3767 653.267C72.5027 641.717 68.3767 627.437 55.6498 609.591C53.7562 606.884 52.0377 604.027 50.5074 601.043Z" fill="#2E3120"/>
<path d="M393.164 245.257C390.009 243.943 387.097 242.459 384.245 241.025C377.358 237.528 370.85 234.201 362.067 233.348C339.541 231.045 312.009 235.856 282.93 240.94C232.447 249.778 180.234 258.888 142.524 234.662C114.946 216.935 101.415 185.816 88.3242 155.738C75.582 126.479 63.568 98.8403 39.7827 82.769C28.7244 75.2964 14.8142 72.5325 0.342823 72.9761V78.0943C12.8574 77.7361 26.4642 79.8004 37.5225 87.1707C60.1853 102.525 71.9263 129.447 84.3498 158.007C97.7442 188.717 111.654 220.604 140.385 239.115C179.491 264.245 234.874 254.469 283.749 245.939C312.57 240.821 339.875 236.129 361.779 238.381C369.804 239.2 375.978 242.322 382.5 245.615C385.398 247.082 388.401 248.6 391.678 249.982C423.139 263.256 440.689 276.034 450.383 292.737C461.122 311.248 463.003 335.85 456.45 372.53C453.022 391.758 446.256 406.925 439.097 422.979C434.186 433.489 429.825 444.313 426.036 455.395C423.68 463.159 421.69 471.058 420.074 479.058C416.464 495.539 412.733 512.566 402.933 525.123C374.37 561.855 331.759 582.771 279.714 585.637C235.39 588.06 185.665 576.851 143.312 554.928C127.703 546.909 112.838 536.076 98.5027 525.532C79.162 511.372 59.2752 496.733 36.6882 488.305C26.0698 484.313 13.7524 483.051 0.282146 484.484V489.602C13.3277 488.169 25.1445 489.346 35.2926 493.151C57.2728 501.391 76.9776 515.841 95.9694 529.814C110.486 540.426 125.428 551.43 141.356 559.688C180.992 580.079 224.009 590.834 267.594 591.25C271.739 591.25 275.841 591.136 279.896 590.909C333.2 587.992 376.979 566.461 406.316 528.654C416.843 515.142 420.712 497.484 424.443 480.423C426.019 472.601 427.964 464.879 430.268 457.289C433.995 446.371 438.285 435.706 443.116 425.351C450.094 409.689 457.33 393.515 460.864 373.605C467.645 335.508 465.552 309.729 454.114 290.007C443.86 272.315 425.657 258.939 393.164 245.257Z" fill="#2E3120"/>
<path d="M324.463 280.163C304.849 274.652 285.175 278.15 266.137 281.528C260.449 282.534 254.579 283.575 248.845 284.36C244.036 285.008 239.197 285.691 234.343 286.373C195.282 291.884 154.902 297.582 116.63 287.806C85.8061 279.975 49.1876 250.545 41.239 214.939C39.1456 205.522 39.4187 194.466 39.7221 182.524C40.344 157.41 41.0569 128.936 14.9053 117.897C10.2102 116.024 5.26389 115.072 0.282146 115.082V120.2C4.72862 120.193 9.14253 121.053 13.3277 122.743C36.4303 132.501 35.8236 156.745 35.1865 182.456C34.8983 194.074 34.61 206.068 36.8551 216.185C41.8306 238.552 56.2261 255.425 67.4362 265.661C81.7104 278.73 99.2915 288.608 115.629 292.788C154.674 302.769 195.464 297.019 234.904 291.457C239.758 290.758 244.597 290.092 249.376 289.444C255.2 288.659 261.116 287.601 266.85 286.578C285.433 283.285 304.652 279.873 323.356 285.128C342.666 290.553 362.598 304.679 376.675 322.917C392.133 342.913 399.156 365.57 396.395 386.81C392.163 420.198 375.416 449.39 346.61 473.548C295.035 516.763 219.189 531.213 170.799 523.161C148.94 519.561 128.538 507.959 108.787 496.836C101.37 492.622 93.6182 488.305 86.0336 484.398C74.1258 478.376 63.5074 467.338 52.2518 455.702C36.6882 439.375 20.5482 422.723 0.282146 419.721V424.941C19.0009 428.081 34.3067 443.947 49.218 459.302C60.2308 470.733 71.6381 482.556 84.2133 488.919C91.7979 492.724 99.3825 497.058 106.74 501.254C126.808 512.651 147.545 524.44 170.192 528.211C219.507 536.417 296.885 521.693 349.401 477.642C378.784 452.989 396.608 421.819 400.976 387.51C403.843 364.819 396.426 340.678 380.119 319.539C365.45 300.636 344.623 285.895 324.463 280.163Z" fill="#2E3120"/>
<path d="M212.969 338.955C203.337 334.621 193.249 330.424 183.526 326.381C164.109 318.277 143.934 309.9 126.186 299.954C120.543 296.78 113.141 297.104 105.981 297.429C101.938 297.779 97.8743 297.693 93.8457 297.173C83.4093 295.211 70.6217 287.226 60.6403 280.504C43.0441 268.562 21.6859 239.934 17.8936 214.291C17.0593 208.712 16.6194 202.758 16.1339 196.462C14.7536 177.798 13.176 156.932 0.282146 145.075V152.207C9.06511 163.109 10.3697 180.221 11.6287 196.923C12.1141 203.321 12.5844 209.36 13.4338 215.144C17.4537 242.237 39.8586 272.452 58.3346 284.906C68.6497 291.867 81.9227 300.141 93.1328 302.24C97.4772 302.823 101.861 302.931 106.224 302.564C112.807 302.274 119.618 301.967 124.214 304.543C142.114 314.609 162.365 323.037 181.948 331.192C191.657 335.235 201.668 339.415 211.286 343.732C229.974 352.143 262.072 381.897 256.793 408.785C253.153 427.245 239.106 440.091 227.972 447.598C214.357 456.542 199.393 462.586 183.829 465.427C143.039 472.49 78.7069 433.813 31.743 405.594C22.1258 399.811 13.0546 394.368 5.36382 390.035C3.64971 389.062 1.95076 388.124 0.282146 387.203V392.918L3.31598 394.624C10.9006 398.924 20.0021 404.366 29.5738 410.116C73.1701 436.321 131.526 471.398 173.529 471.398C177.2 471.413 180.867 471.112 184.497 470.494C211.437 465.836 254.078 445.858 261.177 409.894C267.139 379.781 233.493 348.185 212.969 338.955Z" fill="#2E3120"/>
</g>
<defs>
<clipPath id="clip0_4_64">
<rect width="762" height="854" fill="white"/>
</clipPath>
</defs>
</svg>
