<svg width="33" height="49" viewBox="0 0 33 49" fill="none" xmlns="http://www.w3.org/2000/svg">
<path d="M32.3537 5.1366C31.9297 3.83854 31.0022 2.77803 29.7479 2.15021L26.6156 0.580666C25.3595 -0.0488507 23.925 -0.171021 22.5752 0.236213C21.2238 0.643447 20.1178 1.53258 19.4642 2.73901L0.670397 37.3386C0.290564 38.0394 0.0838643 38.8234 0.069731 39.6039L0.000831086 43.3979C-0.0345022 45.3391 1.05906 47.1004 2.84869 47.998C3.62602 48.3866 4.46695 48.58 5.30612 48.58C6.39615 48.58 7.48088 48.2525 8.40838 47.6094L11.6096 45.3849C12.2738 44.9251 12.825 44.3125 13.2013 43.6151L31.9951 9.0189C32.6505 7.81416 32.7777 6.43466 32.3537 5.1366ZM22.5982 4.30856C22.8155 3.90641 23.1847 3.61117 23.6352 3.47373C23.8101 3.42112 23.9886 3.39567 24.167 3.39567C24.4479 3.39567 24.7253 3.46185 24.9814 3.58911L28.1155 5.15866C28.5324 5.36906 28.8416 5.722 28.9829 6.15299C29.1243 6.58398 29.0819 7.04381 28.8628 7.44765L28.0466 8.95103L21.782 5.81193L22.5982 4.30856ZM12.2367 38.0564C11.1944 36.9857 10.1061 36.3239 9.38888 35.9659C8.18755 35.3636 7.01801 35.0649 5.96862 34.9241L20.1461 8.82207L26.4107 11.9612L12.235 38.0564H12.2367ZM9.53904 42.6378L6.33785 44.8623C5.78312 45.2458 5.08882 45.2967 4.48285 44.9913C3.87689 44.6875 3.52179 44.114 3.53416 43.459L3.60306 39.6616C3.60659 39.402 3.67726 39.1424 3.80269 38.9082L4.17899 38.2159C5.11355 38.1786 6.40675 38.3007 7.75295 38.9744C8.41898 39.3086 9.55141 40.0671 10.4259 41.3855L10.0655 42.049C9.94008 42.2814 9.75634 42.4851 9.53551 42.6395L9.53904 42.6378Z" fill="url(#paint0_linear_56_91)"/>
<defs>
<linearGradient id="paint0_linear_56_91" x1="1.76749" y1="47.4075" x2="27.5457" y2="0.923515" gradientUnits="userSpaceOnUse">
<stop stop-color="#9D73D3"/>
<stop offset="1" stop-color="#8633DA"/>
</linearGradient>
</defs>
</svg>
